<svg xmlns="http://www.w3.org/2000/svg" width="344.452" height="343.948" viewBox="0 0 344.452 343.948">
  <g id="Group_41" data-name="Group 41" transform="matrix(-0.755, 0.656, -0.656, -0.755, 418.002, 188.729)" opacity="0.1">
    <g id="Group_10" data-name="Group 10" transform="translate(0 0)">
      <path id="Path_741" data-name="Path 741" d="M.347,1.253A.667.667,0,1,0,.081.347.667.667,0,0,0,.347,1.253Z" transform="translate(192.552 0.983)" fill="#061757"/>
      <path id="Path_742" data-name="Path 742" d="M.952,3.426A1.823,1.823,0,1,0,.223.952,1.823,1.823,0,0,0,.952,3.426Z" transform="translate(205.48 7.493)" fill="#061757"/>
      <path id="Path_743" data-name="Path 743" d="M1.463,5.262a2.8,2.8,0,1,0-1.122-3.8A2.8,2.8,0,0,0,1.463,5.262Z" transform="translate(218.585 14.181)" fill="#061757"/>
      <path id="Path_744" data-name="Path 744" d="M1.881,6.767A3.6,3.6,0,1,0,.439,1.88,3.6,3.6,0,0,0,1.881,6.767Z" transform="translate(231.868 21.047)" fill="#061757"/>
      <path id="Path_745" data-name="Path 745" d="M2.089,7.518a4,4,0,1,0-1.6-5.429A4,4,0,0,0,2.089,7.518Z" transform="translate(245.552 28.314)" fill="#061757"/>
      <path id="Path_746" data-name="Path 746" d="M2.276,8.186A4.357,4.357,0,1,0,.531,2.276,4.357,4.357,0,0,0,2.276,8.186Z" transform="translate(259.28 35.625)" fill="#061757"/>
      <path id="Path_747" data-name="Path 747" d="M2.113,7.6A4.046,4.046,0,1,0,.493,2.112,4.047,4.047,0,0,0,2.113,7.6Z" transform="translate(273.675 43.603)" fill="#061757"/>
      <path id="Path_748" data-name="Path 748" d="M1.648,5.931A3.158,3.158,0,1,0,.384,1.648,3.159,3.159,0,0,0,1.648,5.931Z" transform="translate(288.649 52.158)" fill="#061757"/>
      <path id="Path_749" data-name="Path 749" d="M.766,2.757A1.467,1.467,0,1,0,.179.766,1.467,1.467,0,0,0,.766,2.757Z" transform="translate(304.423 61.515)" fill="#061757"/>
      <path id="Path_750" data-name="Path 750" d="M.209.751A.4.4,0,1,0,.049.209.4.4,0,0,0,.209.751Z" transform="translate(156.984 0)" fill="#061757"/>
      <path id="Path_751" data-name="Path 751" d="M.883,3.174A1.69,1.69,0,1,0,.206.883,1.69,1.69,0,0,0,.883,3.174Z" transform="translate(169.778 6.377)" fill="#061757"/>
      <path id="Path_752" data-name="Path 752" d="M1.323,4.761A2.535,2.535,0,1,0,.309,1.323,2.536,2.536,0,0,0,1.323,4.761Z" transform="translate(183.017 13.199)" fill="#061757"/>
      <path id="Path_753" data-name="Path 753" d="M1.532,5.512A2.935,2.935,0,1,0,.357,1.532,2.932,2.932,0,0,0,1.532,5.512Z" transform="translate(196.701 20.465)" fill="#061757"/>
      <path id="Path_754" data-name="Path 754" d="M1.7,6.1a3.246,3.246,0,1,0-1.3-4.4A3.244,3.244,0,0,0,1.7,6.1Z" transform="translate(210.473 27.82)" fill="#061757"/>
      <path id="Path_755" data-name="Path 755" d="M1.9,6.85A3.646,3.646,0,1,0,.445,1.9,3.645,3.645,0,0,0,1.9,6.85Z" transform="translate(224.157 35.086)" fill="#061757"/>
      <path id="Path_756" data-name="Path 756" d="M2.089,7.518a4,4,0,1,0-1.6-5.429A4,4,0,0,0,2.089,7.518Z" transform="translate(237.885 42.397)" fill="#061757"/>
      <path id="Path_757" data-name="Path 757" d="M2.276,8.186A4.358,4.358,0,1,0,.531,2.276,4.358,4.358,0,0,0,2.276,8.186Z" transform="translate(251.613 49.709)" fill="#061757"/>
      <path id="Path_758" data-name="Path 758" d="M2.461,8.853A4.713,4.713,0,1,0,.574,2.461,4.713,4.713,0,0,0,2.461,8.853Z" transform="translate(265.342 57.02)" fill="#061757"/>
      <path id="Path_759" data-name="Path 759" d="M2.67,9.6A5.113,5.113,0,1,0,.624,2.67,5.113,5.113,0,0,0,2.67,9.6Z" transform="translate(279.025 64.286)" fill="#061757"/>
      <path id="Path_760" data-name="Path 760" d="M2.809,10.106a5.38,5.38,0,1,0-2.153-7.3A5.379,5.379,0,0,0,2.809,10.106Z" transform="translate(292.842 71.686)" fill="#061757"/>
      <path id="Path_761" data-name="Path 761" d="M2.368,8.52A4.536,4.536,0,1,0,.553,2.368,4.535,4.535,0,0,0,2.368,8.52Z" transform="translate(307.771 80.197)" fill="#061757"/>
      <path id="Path_762" data-name="Path 762" d="M.674,2.423A1.29,1.29,0,1,0,.157.673,1.288,1.288,0,0,0,.674,2.423Z" transform="translate(325.102 91.11)" fill="#061757"/>
      <path id="Path_763" data-name="Path 763" d="M.3,1.087A.578.578,0,1,0,.07.3.577.577,0,0,0,.3,1.087Z" transform="translate(135.056 6.239)" fill="#061757"/>
      <path id="Path_764" data-name="Path 764" d="M.905,3.257A1.734,1.734,0,1,0,.212.905,1.734,1.734,0,0,0,.905,3.257Z" transform="translate(147.983 12.75)" fill="#061757"/>
      <path id="Path_765" data-name="Path 765" d="M1.114,4.01a2.134,2.134,0,1,0-.854-2.9A2.134,2.134,0,0,0,1.114,4.01Z" transform="translate(161.667 20.016)" fill="#061757"/>
      <path id="Path_766" data-name="Path 766" d="M1.323,4.761A2.535,2.535,0,1,0,.308,1.323,2.535,2.535,0,0,0,1.323,4.761Z" transform="translate(175.351 27.283)" fill="#061757"/>
      <ellipse id="Ellipse_19" data-name="Ellipse 19" cx="2.935" cy="2.935" rx="2.935" ry="2.935" transform="translate(189.035 34.549)" fill="#061757"/>
      <path id="Path_767" data-name="Path 767" d="M1.695,6.1a3.246,3.246,0,1,0-1.3-4.4A3.245,3.245,0,0,0,1.695,6.1Z" transform="translate(202.807 41.904)" fill="#061757"/>
      <path id="Path_768" data-name="Path 768" d="M1.9,6.85A3.647,3.647,0,1,0,.444,1.9,3.649,3.649,0,0,0,1.9,6.85Z" transform="translate(216.491 49.17)" fill="#061757"/>
      <path id="Path_769" data-name="Path 769" d="M2.089,7.518a4,4,0,1,0-1.6-5.429A4,4,0,0,0,2.089,7.518Z" transform="translate(230.219 56.481)" fill="#061757"/>
      <path id="Path_770" data-name="Path 770" d="M2.274,8.186A4.358,4.358,0,1,0,.531,2.274,4.358,4.358,0,0,0,2.274,8.186Z" transform="translate(243.947 63.793)" fill="#061757"/>
      <path id="Path_771" data-name="Path 771" d="M2.461,8.853A4.713,4.713,0,1,0,.574,2.461,4.714,4.714,0,0,0,2.461,8.853Z" transform="translate(257.675 71.104)" fill="#061757"/>
      <path id="Path_772" data-name="Path 772" d="M2.669,9.6A5.113,5.113,0,1,0,.623,2.67,5.113,5.113,0,0,0,2.669,9.6Z" transform="translate(271.358 78.37)" fill="#061757"/>
      <path id="Path_773" data-name="Path 773" d="M2.808,10.106a5.38,5.38,0,1,0-2.153-7.3A5.381,5.381,0,0,0,2.808,10.106Z" transform="translate(285.176 85.77)" fill="#061757"/>
      <path id="Path_774" data-name="Path 774" d="M3,10.775A5.736,5.736,0,1,0,.7,2.995,5.735,5.735,0,0,0,3,10.775Z" transform="translate(298.904 93.08)" fill="#061757"/>
      <path id="Path_775" data-name="Path 775" d="M3.087,11.109A5.914,5.914,0,1,0,.721,3.087,5.915,5.915,0,0,0,3.087,11.109Z" transform="translate(312.81 100.569)" fill="#061757"/>
      <path id="Path_776" data-name="Path 776" d="M1.393,5.012A2.668,2.668,0,1,0,.325,1.393,2.668,2.668,0,0,0,1.393,5.012Z" transform="translate(330.141 111.482)" fill="#061757"/>
      <path id="Path_777" data-name="Path 777" d="M.209.751A.4.4,0,1,0,.049.209.4.4,0,0,0,.209.751Z" transform="translate(113.483 12.835)" fill="#061757"/>
      <path id="Path_778" data-name="Path 778" d="M.719,2.589A1.378,1.378,0,1,0,.167.72,1.378,1.378,0,0,0,.719,2.589Z" transform="translate(126.589 19.523)" fill="#061757"/>
      <path id="Path_779" data-name="Path 779" d="M.928,3.341A1.779,1.779,0,1,0,.217.929,1.779,1.779,0,0,0,.928,3.341Z" transform="translate(140.272 26.79)" fill="#061757"/>
      <path id="Path_780" data-name="Path 780" d="M1.115,4.01a2.134,2.134,0,1,0-.854-2.9A2.135,2.135,0,0,0,1.115,4.01Z" transform="translate(154 34.1)" fill="#061757"/>
      <path id="Path_781" data-name="Path 781" d="M1.323,4.761A2.535,2.535,0,1,0,.309,1.323,2.536,2.536,0,0,0,1.323,4.761Z" transform="translate(167.684 41.367)" fill="#061757"/>
      <path id="Path_782" data-name="Path 782" d="M1.532,5.512A2.935,2.935,0,1,0,.358,1.532,2.932,2.932,0,0,0,1.532,5.512Z" transform="translate(181.368 48.633)" fill="#061757"/>
      <path id="Path_783" data-name="Path 783" d="M1.695,6.1a3.246,3.246,0,1,0-1.3-4.4A3.247,3.247,0,0,0,1.695,6.1Z" transform="translate(195.14 55.988)" fill="#061757"/>
      <path id="Path_784" data-name="Path 784" d="M1.9,6.85A3.646,3.646,0,1,0,.445,1.9,3.646,3.646,0,0,0,1.9,6.85Z" transform="translate(208.824 63.254)" fill="#061757"/>
      <path id="Path_785" data-name="Path 785" d="M2.089,7.518a4,4,0,1,0-1.6-5.429A4,4,0,0,0,2.089,7.518Z" transform="translate(222.552 70.565)" fill="#061757"/>
      <path id="Path_786" data-name="Path 786" d="M2.276,8.186A4.358,4.358,0,1,0,.531,2.274,4.357,4.357,0,0,0,2.276,8.186Z" transform="translate(236.28 77.877)" fill="#061757"/>
      <path id="Path_787" data-name="Path 787" d="M2.46,8.853A4.713,4.713,0,1,0,.575,2.461,4.714,4.714,0,0,0,2.46,8.853Z" transform="translate(250.008 85.188)" fill="#061757"/>
      <path id="Path_788" data-name="Path 788" d="M2.67,9.605A5.114,5.114,0,1,0,.624,2.67,5.113,5.113,0,0,0,2.67,9.605Z" transform="translate(263.692 92.453)" fill="#061757"/>
      <path id="Path_789" data-name="Path 789" d="M2.809,10.106a5.38,5.38,0,1,0-2.153-7.3A5.381,5.381,0,0,0,2.809,10.106Z" transform="translate(277.509 99.854)" fill="#061757"/>
      <circle id="Ellipse_20" data-name="Ellipse 20" cx="5.736" cy="5.736" r="5.736" transform="translate(289.172 115.122) rotate(-60.888)" fill="#061757"/>
      <path id="Path_790" data-name="Path 790" d="M3.158,11.36a6.047,6.047,0,1,0-2.421-8.2A6.048,6.048,0,0,0,3.158,11.36Z" transform="translate(305.009 114.519)" fill="#061757"/>
      <path id="Path_791" data-name="Path 791" d="M3.32,11.944A6.358,6.358,0,1,0,.775,3.32,6.358,6.358,0,0,0,3.32,11.944Z" transform="translate(318.783 121.875)" fill="#061757"/>
      <path id="Path_792" data-name="Path 792" d="M1.485,5.346A2.846,2.846,0,1,0,.347,1.486,2.844,2.844,0,0,0,1.485,5.346Z" transform="translate(336.38 133.055)" fill="#061757"/>
      <path id="Path_793" data-name="Path 793" d="M.069.25A.133.133,0,1,0,.016.07.133.133,0,0,0,.069.25Z" transform="translate(91.999 19.518)" fill="#061757"/>
      <path id="Path_794" data-name="Path 794" d="M.487,1.755A.934.934,0,1,0,.114.488.935.935,0,0,0,.487,1.755Z" transform="translate(105.283 26.385)" fill="#061757"/>
      <path id="Path_795" data-name="Path 795" d="M.719,2.589A1.378,1.378,0,1,0,.169.72,1.378,1.378,0,0,0,.719,2.589Z" transform="translate(118.922 33.607)" fill="#061757"/>
      <path id="Path_796" data-name="Path 796" d="M.929,3.34A1.778,1.778,0,1,0,.217.929,1.777,1.777,0,0,0,.929,3.34Z" transform="translate(132.606 40.874)" fill="#061757"/>
      <path id="Path_797" data-name="Path 797" d="M1.114,4.01a2.135,2.135,0,1,0-.854-2.9A2.134,2.134,0,0,0,1.114,4.01Z" transform="translate(146.334 48.184)" fill="#061757"/>
      <path id="Path_798" data-name="Path 798" d="M1.323,4.761A2.535,2.535,0,1,0,.308,1.323,2.534,2.534,0,0,0,1.323,4.761Z" transform="translate(160.018 55.451)" fill="#061757"/>
      <path id="Path_799" data-name="Path 799" d="M1.532,5.512A2.935,2.935,0,1,0,.358,1.532,2.935,2.935,0,0,0,1.532,5.512Z" transform="translate(173.701 62.717)" fill="#061757"/>
      <path id="Path_800" data-name="Path 800" d="M1.695,6.1a3.246,3.246,0,1,0-1.3-4.4A3.245,3.245,0,0,0,1.695,6.1Z" transform="translate(187.474 70.072)" fill="#061757"/>
      <path id="Path_801" data-name="Path 801" d="M1.9,6.85A3.647,3.647,0,1,0,.444,1.9,3.648,3.648,0,0,0,1.9,6.85Z" transform="translate(201.157 77.338)" fill="#061757"/>
      <path id="Path_802" data-name="Path 802" d="M2.09,7.518a4,4,0,1,0-1.6-5.429A4,4,0,0,0,2.09,7.518Z" transform="translate(214.885 84.649)" fill="#061757"/>
      <path id="Path_803" data-name="Path 803" d="M2.274,8.186A4.358,4.358,0,1,0,.531,2.274,4.358,4.358,0,0,0,2.274,8.186Z" transform="translate(228.614 91.961)" fill="#061757"/>
      <path id="Path_804" data-name="Path 804" d="M2.461,8.854A4.713,4.713,0,1,0,.574,2.46,4.712,4.712,0,0,0,2.461,8.854Z" transform="translate(242.341 99.271)" fill="#061757"/>
      <path id="Path_805" data-name="Path 805" d="M2.669,9.605A5.114,5.114,0,1,0,.623,2.669,5.113,5.113,0,0,0,2.669,9.605Z" transform="translate(256.025 106.537)" fill="#061757"/>
      <path id="Path_806" data-name="Path 806" d="M2.808,10.107a5.38,5.38,0,1,0-2.153-7.3A5.381,5.381,0,0,0,2.808,10.107Z" transform="translate(269.843 113.937)" fill="#061757"/>
      <circle id="Ellipse_21" data-name="Ellipse 21" cx="5.736" cy="5.736" r="5.736" transform="matrix(0.686, -0.728, 0.728, 0.686, 281.199, 127.226)" fill="#061757"/>
      <path id="Path_807" data-name="Path 807" d="M3.158,11.36a6.047,6.047,0,1,0-2.421-8.2A6.046,6.046,0,0,0,3.158,11.36Z" transform="translate(297.343 128.603)" fill="#061757"/>
      <path id="Path_808" data-name="Path 808" d="M3.32,11.944A6.359,6.359,0,1,0,.775,3.32,6.361,6.361,0,0,0,3.32,11.944Z" transform="translate(311.115 135.959)" fill="#061757"/>
      <path id="Path_809" data-name="Path 809" d="M3.412,12.278A6.536,6.536,0,1,0,.8,3.413,6.536,6.536,0,0,0,3.412,12.278Z" transform="translate(325.022 143.447)" fill="#061757"/>
      <path id="Path_810" data-name="Path 810" d="M.789,2.84A1.512,1.512,0,1,0,.184.79,1.511,1.511,0,0,0,.789,2.84Z" transform="translate(344.131 156.139)" fill="#061757"/>
      <path id="Path_811" data-name="Path 811" d="M.255.918A.489.489,0,1,0,.06.255.491.491,0,0,0,.255.918Z" transform="translate(83.977 33.248)" fill="#061757"/>
      <path id="Path_812" data-name="Path 812" d="M.512,1.838A.978.978,0,1,0,.119.511.978.978,0,0,0,.512,1.838Z" transform="translate(97.572 40.425)" fill="#061757"/>
      <path id="Path_813" data-name="Path 813" d="M.719,2.589A1.378,1.378,0,1,0,.167.72,1.376,1.376,0,0,0,.719,2.589Z" transform="translate(111.256 47.691)" fill="#061757"/>
      <path id="Path_814" data-name="Path 814" d="M.928,3.341A1.779,1.779,0,1,0,.217.93,1.778,1.778,0,0,0,.928,3.341Z" transform="translate(124.939 54.957)" fill="#061757"/>
      <path id="Path_815" data-name="Path 815" d="M1.115,4.01a2.135,2.135,0,1,0-.854-2.9A2.135,2.135,0,0,0,1.115,4.01Z" transform="translate(138.667 62.268)" fill="#061757"/>
      <path id="Path_816" data-name="Path 816" d="M1.323,4.762A2.535,2.535,0,1,0,.309,1.324,2.533,2.533,0,0,0,1.323,4.762Z" transform="translate(152.351 69.534)" fill="#061757"/>
      <path id="Path_817" data-name="Path 817" d="M1.532,5.512A2.934,2.934,0,1,0,.358,1.532,2.933,2.933,0,0,0,1.532,5.512Z" transform="translate(166.035 76.801)" fill="#061757"/>
      <path id="Path_818" data-name="Path 818" d="M1.695,6.1a3.246,3.246,0,1,0-1.3-4.4A3.247,3.247,0,0,0,1.695,6.1Z" transform="translate(179.807 84.156)" fill="#061757"/>
      <path id="Path_819" data-name="Path 819" d="M1.9,6.85A3.646,3.646,0,1,0,.445,1.9,3.646,3.646,0,0,0,1.9,6.85Z" transform="translate(193.491 91.422)" fill="#061757"/>
      <path id="Path_820" data-name="Path 820" d="M2.089,7.518a4,4,0,1,0-1.6-5.429A4,4,0,0,0,2.089,7.518Z" transform="translate(207.219 98.733)" fill="#061757"/>
      <path id="Path_821" data-name="Path 821" d="M2.276,8.186A4.358,4.358,0,1,0,.531,2.274,4.356,4.356,0,0,0,2.276,8.186Z" transform="translate(220.947 106.044)" fill="#061757"/>
      <path id="Path_822" data-name="Path 822" d="M2.46,8.854A4.713,4.713,0,1,0,.575,2.46,4.714,4.714,0,0,0,2.46,8.854Z" transform="translate(234.675 113.355)" fill="#061757"/>
      <path id="Path_823" data-name="Path 823" d="M2.67,9.606A5.114,5.114,0,1,0,.624,2.669,5.113,5.113,0,0,0,2.67,9.606Z" transform="translate(248.359 120.621)" fill="#061757"/>
      <path id="Path_824" data-name="Path 824" d="M2.81,10.107a5.38,5.38,0,1,0-2.155-7.3A5.381,5.381,0,0,0,2.81,10.107Z" transform="translate(262.176 128.021)" fill="#061757"/>
      <path id="Path_825" data-name="Path 825" d="M2.994,10.775A5.736,5.736,0,1,0,.7,2.995,5.735,5.735,0,0,0,2.994,10.775Z" transform="translate(275.904 135.332)" fill="#061757"/>
      <path id="Path_826" data-name="Path 826" d="M3.158,11.36a6.047,6.047,0,1,0-2.421-8.2A6.047,6.047,0,0,0,3.158,11.36Z" transform="translate(289.676 142.687)" fill="#061757"/>
      <path id="Path_827" data-name="Path 827" d="M3.32,11.944A6.358,6.358,0,1,0,.775,3.32,6.359,6.359,0,0,0,3.32,11.944Z" transform="translate(303.449 150.043)" fill="#061757"/>
      <path id="Path_828" data-name="Path 828" d="M3.482,12.529A6.67,6.67,0,1,0,.813,3.482,6.67,6.67,0,0,0,3.482,12.529Z" transform="translate(317.221 157.398)" fill="#061757"/>
      <path id="Path_829" data-name="Path 829" d="M2.971,10.691A5.691,5.691,0,1,0,.694,2.971,5.693,5.693,0,0,0,2.971,10.691Z" transform="translate(332.284 166.043)" fill="#061757"/>
      <path id="Path_830" data-name="Path 830" d="M.023.083A.042.042,0,0,0,.083.065.042.042,0,0,0,.065.005a.043.043,0,0,0-.06.018A.045.045,0,0,0,.023.083Z" transform="translate(352.016 179.358)" fill="#061757"/>
      <path id="Path_831" data-name="Path 831" d="M.047.168A.089.089,0,0,0,.166.132.088.088,0,0,0,.131.011.087.087,0,0,0,.011.047.088.088,0,0,0,.047.168Z" transform="translate(62.627 40.064)" fill="#061757"/>
      <path id="Path_832" data-name="Path 832" d="M.3,1.085A.578.578,0,1,0,.07.3.575.575,0,0,0,.3,1.085Z" transform="translate(76.222 47.242)" fill="#061757"/>
      <path id="Path_833" data-name="Path 833" d="M.511,1.838A.979.979,0,1,0,.119.512.978.978,0,0,0,.511,1.838Z" transform="translate(89.905 54.508)" fill="#061757"/>
      <path id="Path_834" data-name="Path 834" d="M.719,2.589A1.378,1.378,0,1,0,.169.719,1.378,1.378,0,0,0,.719,2.589Z" transform="translate(103.589 61.775)" fill="#061757"/>
      <path id="Path_835" data-name="Path 835" d="M.929,3.341A1.779,1.779,0,1,0,.217.928,1.779,1.779,0,0,0,.929,3.341Z" transform="translate(117.273 69.041)" fill="#061757"/>
      <path id="Path_836" data-name="Path 836" d="M1.114,4.01a2.135,2.135,0,1,0-.854-2.9A2.134,2.134,0,0,0,1.114,4.01Z" transform="translate(131.001 76.352)" fill="#061757"/>
      <path id="Path_837" data-name="Path 837" d="M1.324,4.762A2.534,2.534,0,1,0,.309,1.324,2.534,2.534,0,0,0,1.324,4.762Z" transform="translate(144.684 83.618)" fill="#061757"/>
      <path id="Path_838" data-name="Path 838" d="M1.532,5.512A2.935,2.935,0,1,0,.357,1.533,2.935,2.935,0,0,0,1.532,5.512Z" transform="translate(158.367 90.885)" fill="#061757"/>
      <path id="Path_839" data-name="Path 839" d="M1.695,6.1a3.246,3.246,0,1,0-1.3-4.4A3.245,3.245,0,0,0,1.695,6.1Z" transform="translate(172.141 98.24)" fill="#061757"/>
      <path id="Path_840" data-name="Path 840" d="M1.9,6.849A3.646,3.646,0,1,0,.445,1.9,3.646,3.646,0,0,0,1.9,6.849Z" transform="translate(185.824 105.506)" fill="#061757"/>
      <path id="Path_841" data-name="Path 841" d="M2.09,7.518a4,4,0,1,0-1.6-5.429A4,4,0,0,0,2.09,7.518Z" transform="translate(199.552 112.817)" fill="#061757"/>
      <path id="Path_842" data-name="Path 842" d="M2.274,8.186A4.358,4.358,0,1,0,.531,2.274,4.358,4.358,0,0,0,2.274,8.186Z" transform="translate(213.281 120.128)" fill="#061757"/>
      <path id="Path_843" data-name="Path 843" d="M2.461,8.854A4.713,4.713,0,1,0,.574,2.46,4.712,4.712,0,0,0,2.461,8.854Z" transform="translate(227.008 127.439)" fill="#061757"/>
      <path id="Path_844" data-name="Path 844" d="M2.669,9.605A5.114,5.114,0,1,0,.623,2.669,5.114,5.114,0,0,0,2.669,9.605Z" transform="translate(240.692 134.705)" fill="#061757"/>
      <path id="Path_845" data-name="Path 845" d="M2.809,10.107a5.38,5.38,0,1,0-2.153-7.3A5.381,5.381,0,0,0,2.809,10.107Z" transform="translate(254.509 142.105)" fill="#061757"/>
      <path id="Path_846" data-name="Path 846" d="M3,10.775A5.735,5.735,0,1,0,.7,2.995,5.735,5.735,0,0,0,3,10.775Z" transform="translate(268.237 149.416)" fill="#061757"/>
      <ellipse id="Ellipse_22" data-name="Ellipse 22" cx="6.047" cy="6.047" rx="6.047" ry="6.047" transform="translate(280.547 158.731) rotate(-16.438)" fill="#061757"/>
      <path id="Path_847" data-name="Path 847" d="M3.32,11.944A6.359,6.359,0,1,0,.775,3.32,6.359,6.359,0,0,0,3.32,11.944Z" transform="translate(295.782 164.127)" fill="#061757"/>
      <path id="Path_848" data-name="Path 848" d="M3.482,12.529A6.67,6.67,0,1,0,.813,3.482,6.67,6.67,0,0,0,3.482,12.529Z" transform="translate(309.555 171.482)" fill="#061757"/>
      <path id="Path_849" data-name="Path 849" d="M3.621,13.031A6.937,6.937,0,1,0,.846,3.621,6.937,6.937,0,0,0,3.621,13.031Z" transform="translate(323.372 178.881)" fill="#061757"/>
      <path id="Path_850" data-name="Path 850" d="M1.092,3.925A2.089,2.089,0,1,0,.255,1.091,2.089,2.089,0,0,0,1.092,3.925Z" transform="translate(342.303 191.396)" fill="#061757"/>
      <path id="Path_851" data-name="Path 851" d="M.094.335A.178.178,0,1,0,.023.093.178.178,0,0,0,.094.335Z" transform="translate(54.871 54.059)" fill="#061757"/>
      <path id="Path_852" data-name="Path 852" d="M.3,1.085A.578.578,0,1,0,.071.3.577.577,0,0,0,.3,1.085Z" transform="translate(68.555 61.326)" fill="#061757"/>
      <path id="Path_853" data-name="Path 853" d="M.51,1.838A.979.979,0,1,0,.119.51.98.98,0,0,0,.51,1.838Z" transform="translate(82.238 68.592)" fill="#061757"/>
      <path id="Path_854" data-name="Path 854" d="M.72,2.589A1.378,1.378,0,1,0,.168.719,1.377,1.377,0,0,0,.72,2.589Z" transform="translate(95.922 75.859)" fill="#061757"/>
      <path id="Path_855" data-name="Path 855" d="M.928,3.341A1.779,1.779,0,1,0,.217.928,1.778,1.778,0,0,0,.928,3.341Z" transform="translate(109.606 83.125)" fill="#061757"/>
      <path id="Path_856" data-name="Path 856" d="M1.115,4.009A2.134,2.134,0,1,0,.26,1.115,2.133,2.133,0,0,0,1.115,4.009Z" transform="translate(123.333 90.436)" fill="#061757"/>
      <path id="Path_857" data-name="Path 857" d="M1.323,4.762A2.535,2.535,0,1,0,.309,1.324,2.535,2.535,0,0,0,1.323,4.762Z" transform="translate(137.018 97.702)" fill="#061757"/>
      <ellipse id="Ellipse_23" data-name="Ellipse 23" cx="2.935" cy="2.935" rx="2.935" ry="2.935" transform="translate(150.702 104.969)" fill="#061757"/>
      <path id="Path_858" data-name="Path 858" d="M1.695,6.1a3.246,3.246,0,1,0-1.3-4.4A3.245,3.245,0,0,0,1.695,6.1Z" transform="translate(164.474 112.324)" fill="#061757"/>
      <path id="Path_859" data-name="Path 859" d="M1.9,6.849A3.646,3.646,0,1,0,.444,1.9,3.644,3.644,0,0,0,1.9,6.849Z" transform="translate(178.157 119.59)" fill="#061757"/>
      <path id="Path_860" data-name="Path 860" d="M2.089,7.518a4,4,0,1,0-1.6-5.429A4,4,0,0,0,2.089,7.518Z" transform="translate(191.885 126.901)" fill="#061757"/>
      <path id="Path_861" data-name="Path 861" d="M2.276,8.186A4.358,4.358,0,1,0,.531,2.274,4.357,4.357,0,0,0,2.276,8.186Z" transform="translate(205.613 134.212)" fill="#061757"/>
      <path id="Path_862" data-name="Path 862" d="M2.46,8.854A4.713,4.713,0,1,0,.575,2.46,4.714,4.714,0,0,0,2.46,8.854Z" transform="translate(219.342 141.523)" fill="#061757"/>
      <path id="Path_863" data-name="Path 863" d="M2.67,9.605A5.114,5.114,0,1,0,.624,2.669,5.113,5.113,0,0,0,2.67,9.605Z" transform="translate(233.026 148.789)" fill="#061757"/>
      <path id="Path_864" data-name="Path 864" d="M2.81,10.107a5.38,5.38,0,1,0-2.155-7.3A5.381,5.381,0,0,0,2.81,10.107Z" transform="translate(246.842 156.189)" fill="#061757"/>
      <path id="Path_865" data-name="Path 865" d="M2.994,10.775A5.736,5.736,0,1,0,.7,2.994,5.735,5.735,0,0,0,2.994,10.775Z" transform="translate(260.571 163.5)" fill="#061757"/>
      <path id="Path_866" data-name="Path 866" d="M3.158,11.36a6.047,6.047,0,1,0-2.421-8.2A6.048,6.048,0,0,0,3.158,11.36Z" transform="translate(274.343 170.855)" fill="#061757"/>
      <path id="Path_867" data-name="Path 867" d="M3.321,11.945A6.358,6.358,0,1,0,.776,3.321,6.359,6.359,0,0,0,3.321,11.945Z" transform="translate(288.115 178.21)" fill="#061757"/>
      <path id="Path_868" data-name="Path 868" d="M3.482,12.529A6.67,6.67,0,1,0,.813,3.482,6.67,6.67,0,0,0,3.482,12.529Z" transform="translate(301.888 185.566)" fill="#061757"/>
      <path id="Path_869" data-name="Path 869" d="M3.621,13.032A6.937,6.937,0,1,0,.846,3.621,6.937,6.937,0,0,0,3.621,13.032Z" transform="translate(315.705 192.965)" fill="#061757"/>
      <path id="Path_870" data-name="Path 870" d="M2.414,8.687A4.625,4.625,0,1,0,.563,2.414,4.626,4.626,0,0,0,2.414,8.687Z" transform="translate(332.102 202.945)" fill="#061757"/>
      <path id="Path_871" data-name="Path 871" d="M.093.335A.178.178,0,0,0,.264.021.178.178,0,1,0,.093.335Z" transform="translate(47.205 68.143)" fill="#061757"/>
      <path id="Path_872" data-name="Path 872" d="M.3,1.086A.578.578,0,1,0,.07.3.575.575,0,0,0,.3,1.086Z" transform="translate(60.888 75.41)" fill="#061757"/>
      <path id="Path_873" data-name="Path 873" d="M.511,1.838A.979.979,0,1,0,.119.51.978.978,0,0,0,.511,1.838Z" transform="translate(74.571 82.676)" fill="#061757"/>
      <path id="Path_874" data-name="Path 874" d="M.719,2.589A1.378,1.378,0,1,0,.167.719,1.38,1.38,0,0,0,.719,2.589Z" transform="translate(88.255 89.943)" fill="#061757"/>
      <path id="Path_875" data-name="Path 875" d="M.929,3.341A1.779,1.779,0,1,0,.217.928,1.778,1.778,0,0,0,.929,3.341Z" transform="translate(101.94 97.209)" fill="#061757"/>
      <path id="Path_876" data-name="Path 876" d="M1.114,4.009A2.134,2.134,0,1,0,.26,1.115,2.132,2.132,0,0,0,1.114,4.009Z" transform="translate(115.667 104.52)" fill="#061757"/>
      <path id="Path_877" data-name="Path 877" d="M1.324,4.762A2.534,2.534,0,1,0,.309,1.323,2.536,2.536,0,0,0,1.324,4.762Z" transform="translate(129.351 111.786)" fill="#061757"/>
      <path id="Path_878" data-name="Path 878" d="M1.532,5.512A2.935,2.935,0,1,0,.357,1.531,2.936,2.936,0,0,0,1.532,5.512Z" transform="translate(143.034 119.053)" fill="#061757"/>
      <path id="Path_879" data-name="Path 879" d="M1.695,6.1a3.246,3.246,0,1,0-1.3-4.4A3.246,3.246,0,0,0,1.695,6.1Z" transform="translate(156.807 126.408)" fill="#061757"/>
      <path id="Path_880" data-name="Path 880" d="M1.9,6.849A3.646,3.646,0,1,0,.445,1.9,3.646,3.646,0,0,0,1.9,6.849Z" transform="translate(170.49 133.674)" fill="#061757"/>
      <path id="Path_881" data-name="Path 881" d="M2.09,7.516a4,4,0,1,0-1.6-5.427A4,4,0,0,0,2.09,7.516Z" transform="translate(184.219 140.985)" fill="#061757"/>
      <path id="Path_882" data-name="Path 882" d="M2.274,8.186A4.358,4.358,0,1,0,.532,2.274,4.358,4.358,0,0,0,2.274,8.186Z" transform="translate(197.947 148.296)" fill="#061757"/>
      <path id="Path_883" data-name="Path 883" d="M2.461,8.855A4.714,4.714,0,1,0,.574,2.461,4.713,4.713,0,0,0,2.461,8.855Z" transform="translate(211.675 155.606)" fill="#061757"/>
      <path id="Path_884" data-name="Path 884" d="M2.67,9.606A5.114,5.114,0,1,0,.624,2.669,5.113,5.113,0,0,0,2.67,9.606Z" transform="translate(225.358 162.873)" fill="#061757"/>
      <path id="Path_885" data-name="Path 885" d="M2.808,10.107A5.381,5.381,0,1,0,.656,2.81,5.381,5.381,0,0,0,2.808,10.107Z" transform="translate(239.176 170.272)" fill="#061757"/>
      <path id="Path_886" data-name="Path 886" d="M3,10.775A5.736,5.736,0,1,0,.7,3,5.737,5.737,0,0,0,3,10.775Z" transform="translate(252.904 177.583)" fill="#061757"/>
      <path id="Path_887" data-name="Path 887" d="M3.157,11.36a6.047,6.047,0,1,0-2.419-8.2A6.048,6.048,0,0,0,3.157,11.36Z" transform="translate(266.677 184.939)" fill="#061757"/>
      <path id="Path_888" data-name="Path 888" d="M3.32,11.945A6.359,6.359,0,1,0,.775,3.319,6.359,6.359,0,0,0,3.32,11.945Z" transform="translate(280.449 192.294)" fill="#061757"/>
      <path id="Path_889" data-name="Path 889" d="M3.482,12.529A6.67,6.67,0,1,0,.813,3.482,6.672,6.672,0,0,0,3.482,12.529Z" transform="translate(294.222 199.65)" fill="#061757"/>
      <path id="Path_890" data-name="Path 890" d="M3.621,13.03A6.936,6.936,0,1,0,.846,3.621,6.936,6.936,0,0,0,3.621,13.03Z" transform="translate(308.039 207.049)" fill="#061757"/>
      <path id="Path_891" data-name="Path 891" d="M3.3,11.861A6.314,6.314,0,1,0,.769,3.3,6.314,6.314,0,0,0,3.3,11.861Z" transform="translate(322.745 215.339)" fill="#061757"/>
      <path id="Path_892" data-name="Path 892" d="M.094.335A.178.178,0,0,0,.335.264.179.179,0,0,0,.263.022.18.18,0,0,0,.021.093.178.178,0,0,0,.094.335Z" transform="translate(39.537 82.227)" fill="#061757"/>
      <path id="Path_893" data-name="Path 893" d="M.3,1.086A.578.578,0,1,0,.071.3.577.577,0,0,0,.3,1.086Z" transform="translate(53.222 89.494)" fill="#061757"/>
      <path id="Path_894" data-name="Path 894" d="M.51,1.838A.979.979,0,1,0,.119.51.98.98,0,0,0,.51,1.838Z" transform="translate(66.905 96.76)" fill="#061757"/>
      <path id="Path_895" data-name="Path 895" d="M.72,2.59A1.379,1.379,0,1,0,.169.719,1.379,1.379,0,0,0,.72,2.59Z" transform="translate(80.588 104.026)" fill="#061757"/>
      <path id="Path_896" data-name="Path 896" d="M.928,3.341A1.779,1.779,0,1,0,.217.928,1.778,1.778,0,0,0,.928,3.341Z" transform="translate(94.273 111.293)" fill="#061757"/>
      <path id="Path_897" data-name="Path 897" d="M1.115,4.009a2.134,2.134,0,1,0-.855-2.9A2.133,2.133,0,0,0,1.115,4.009Z" transform="translate(108 118.604)" fill="#061757"/>
      <path id="Path_898" data-name="Path 898" d="M1.323,4.762A2.535,2.535,0,1,0,.309,1.323,2.535,2.535,0,0,0,1.323,4.762Z" transform="translate(121.684 125.87)" fill="#061757"/>
      <path id="Path_899" data-name="Path 899" d="M1.531,5.513A2.935,2.935,0,1,0,.358,1.532,2.936,2.936,0,0,0,1.531,5.513Z" transform="translate(135.368 133.136)" fill="#061757"/>
      <path id="Path_900" data-name="Path 900" d="M1.694,6.1a3.246,3.246,0,1,0-1.3-4.4A3.245,3.245,0,0,0,1.694,6.1Z" transform="translate(149.14 140.492)" fill="#061757"/>
      <path id="Path_901" data-name="Path 901" d="M1.9,6.849A3.646,3.646,0,1,0,.444,1.9,3.644,3.644,0,0,0,1.9,6.849Z" transform="translate(162.824 147.758)" fill="#061757"/>
      <path id="Path_902" data-name="Path 902" d="M2.089,7.517A4,4,0,1,0,.488,2.09,4,4,0,0,0,2.089,7.517Z" transform="translate(176.552 155.069)" fill="#061757"/>
      <path id="Path_903" data-name="Path 903" d="M2.276,8.187A4.358,4.358,0,1,0,.531,2.276,4.357,4.357,0,0,0,2.276,8.187Z" transform="translate(190.28 162.379)" fill="#061757"/>
      <path id="Path_904" data-name="Path 904" d="M2.461,8.855A4.714,4.714,0,1,0,.574,2.461,4.714,4.714,0,0,0,2.461,8.855Z" transform="translate(204.008 169.69)" fill="#061757"/>
      <path id="Path_905" data-name="Path 905" d="M2.67,9.606A5.113,5.113,0,1,0,.624,2.67,5.111,5.111,0,0,0,2.67,9.606Z" transform="translate(217.693 176.956)" fill="#061757"/>
      <path id="Path_906" data-name="Path 906" d="M2.81,10.107A5.38,5.38,0,1,0,.656,2.81,5.381,5.381,0,0,0,2.81,10.107Z" transform="translate(231.509 184.356)" fill="#061757"/>
      <path id="Path_907" data-name="Path 907" d="M2.994,10.775A5.737,5.737,0,1,0,.7,2.995,5.736,5.736,0,0,0,2.994,10.775Z" transform="translate(245.237 191.667)" fill="#061757"/>
      <path id="Path_908" data-name="Path 908" d="M3.157,11.36a6.047,6.047,0,1,0-2.421-8.2A6.046,6.046,0,0,0,3.157,11.36Z" transform="translate(259.01 199.023)" fill="#061757"/>
      <path id="Path_909" data-name="Path 909" d="M3.321,11.945A6.358,6.358,0,1,0,.776,3.319,6.359,6.359,0,0,0,3.321,11.945Z" transform="translate(272.782 206.378)" fill="#061757"/>
      <path id="Path_910" data-name="Path 910" d="M3.482,12.529A6.67,6.67,0,1,0,.813,3.482,6.671,6.671,0,0,0,3.482,12.529Z" transform="translate(286.555 213.734)" fill="#061757"/>
      <path id="Path_911" data-name="Path 911" d="M3.622,13.03A6.936,6.936,0,1,0,.846,3.621,6.936,6.936,0,0,0,3.622,13.03Z" transform="translate(300.372 221.133)" fill="#061757"/>
      <path id="Path_912" data-name="Path 912" d="M3.761,13.531A7.2,7.2,0,1,0,.878,3.761,7.2,7.2,0,0,0,3.761,13.531Z" transform="translate(314.189 228.533)" fill="#061757"/>
      <path id="Path_913" data-name="Path 913" d="M.093.335A.18.18,0,0,0,.335.264.178.178,0,1,0,.093.335Z" transform="translate(31.872 96.311)" fill="#061757"/>
      <path id="Path_914" data-name="Path 914" d="M.3,1.086A.578.578,0,1,0,.07.3.577.577,0,0,0,.3,1.086Z" transform="translate(45.555 103.578)" fill="#061757"/>
      <path id="Path_915" data-name="Path 915" d="M.511,1.837A.977.977,0,1,0,.119.51.976.976,0,0,0,.511,1.837Z" transform="translate(59.238 110.844)" fill="#061757"/>
      <path id="Path_916" data-name="Path 916" d="M.719,2.59A1.379,1.379,0,1,0,.167.719,1.38,1.38,0,0,0,.719,2.59Z" transform="translate(72.922 118.11)" fill="#061757"/>
      <path id="Path_917" data-name="Path 917" d="M.929,3.341A1.778,1.778,0,1,0,.217.928,1.777,1.777,0,0,0,.929,3.341Z" transform="translate(86.606 125.377)" fill="#061757"/>
      <path id="Path_918" data-name="Path 918" d="M1.114,4.009a2.134,2.134,0,1,0-.854-2.9A2.134,2.134,0,0,0,1.114,4.009Z" transform="translate(100.334 132.688)" fill="#061757"/>
      <path id="Path_919" data-name="Path 919" d="M1.324,4.762A2.534,2.534,0,1,0,.309,1.323,2.536,2.536,0,0,0,1.324,4.762Z" transform="translate(114.017 139.954)" fill="#061757"/>
      <path id="Path_920" data-name="Path 920" d="M1.532,5.513A2.935,2.935,0,1,0,.357,1.532,2.936,2.936,0,0,0,1.532,5.513Z" transform="translate(127.701 147.22)" fill="#061757"/>
      <path id="Path_921" data-name="Path 921" d="M1.695,6.1a3.246,3.246,0,1,0-1.3-4.4A3.245,3.245,0,0,0,1.695,6.1Z" transform="translate(141.474 154.576)" fill="#061757"/>
      <path id="Path_922" data-name="Path 922" d="M1.9,6.849A3.646,3.646,0,1,0,.445,1.9,3.646,3.646,0,0,0,1.9,6.849Z" transform="translate(155.157 161.842)" fill="#061757"/>
      <path id="Path_923" data-name="Path 923" d="M2.09,7.517A4,4,0,1,0,.488,2.09,4,4,0,0,0,2.09,7.517Z" transform="translate(168.885 169.153)" fill="#061757"/>
      <path id="Path_924" data-name="Path 924" d="M2.274,8.186A4.358,4.358,0,1,0,.531,2.276,4.358,4.358,0,0,0,2.274,8.186Z" transform="translate(182.614 176.463)" fill="#061757"/>
      <path id="Path_925" data-name="Path 925" d="M2.461,8.855A4.714,4.714,0,1,0,.574,2.461,4.713,4.713,0,0,0,2.461,8.855Z" transform="translate(196.342 183.774)" fill="#061757"/>
      <path id="Path_926" data-name="Path 926" d="M2.67,9.606A5.114,5.114,0,1,0,.624,2.67,5.113,5.113,0,0,0,2.67,9.606Z" transform="translate(210.025 191.04)" fill="#061757"/>
      <path id="Path_927" data-name="Path 927" d="M2.809,10.108A5.381,5.381,0,1,0,.656,2.81,5.381,5.381,0,0,0,2.809,10.108Z" transform="translate(223.842 198.44)" fill="#061757"/>
      <path id="Path_928" data-name="Path 928" d="M3,10.775A5.736,5.736,0,1,0,.7,3,5.736,5.736,0,0,0,3,10.775Z" transform="translate(237.571 205.751)" fill="#061757"/>
      <path id="Path_929" data-name="Path 929" d="M3.157,11.36a6.047,6.047,0,1,0-2.419-8.2A6.048,6.048,0,0,0,3.157,11.36Z" transform="translate(251.343 213.107)" fill="#061757"/>
      <path id="Path_930" data-name="Path 930" d="M3.32,11.945A6.359,6.359,0,1,0,.775,3.319,6.359,6.359,0,0,0,3.32,11.945Z" transform="translate(265.116 220.462)" fill="#061757"/>
      <path id="Path_931" data-name="Path 931" d="M3.483,12.53A6.67,6.67,0,1,0,.814,3.483,6.672,6.672,0,0,0,3.483,12.53Z" transform="translate(278.888 227.817)" fill="#061757"/>
      <ellipse id="Ellipse_24" data-name="Ellipse 24" cx="6.937" cy="6.937" rx="6.937" ry="6.937" transform="translate(291.027 237.465) rotate(-16.438)" fill="#061757"/>
      <path id="Path_932" data-name="Path 932" d="M3.762,13.531A7.2,7.2,0,1,0,.878,3.761,7.2,7.2,0,0,0,3.762,13.531Z" transform="translate(306.523 242.617)" fill="#061757"/>
      <path id="Path_933" data-name="Path 933" d="M.094.335A.178.178,0,0,0,.264.022.18.18,0,0,0,.021.093.178.178,0,0,0,.094.335Z" transform="translate(24.204 110.395)" fill="#061757"/>
      <path id="Path_934" data-name="Path 934" d="M.3,1.086A.578.578,0,1,0,.071.3.579.579,0,0,0,.3,1.086Z" transform="translate(37.888 117.661)" fill="#061757"/>
      <path id="Path_935" data-name="Path 935" d="M.51,1.837A.978.978,0,1,0,.119.51.978.978,0,0,0,.51,1.837Z" transform="translate(51.572 124.928)" fill="#061757"/>
      <path id="Path_936" data-name="Path 936" d="M.72,2.59A1.379,1.379,0,1,0,.169.719,1.379,1.379,0,0,0,.72,2.59Z" transform="translate(65.255 132.194)" fill="#061757"/>
      <path id="Path_937" data-name="Path 937" d="M.929,3.341A1.779,1.779,0,1,0,.217.928,1.778,1.778,0,0,0,.929,3.341Z" transform="translate(78.939 139.461)" fill="#061757"/>
      <path id="Path_938" data-name="Path 938" d="M1.115,4.009a2.134,2.134,0,1,0-.855-2.9A2.134,2.134,0,0,0,1.115,4.009Z" transform="translate(92.667 146.772)" fill="#061757"/>
      <path id="Path_939" data-name="Path 939" d="M1.323,4.762A2.535,2.535,0,1,0,.308,1.323,2.535,2.535,0,0,0,1.323,4.762Z" transform="translate(106.351 154.038)" fill="#061757"/>
      <path id="Path_940" data-name="Path 940" d="M1.532,5.513A2.935,2.935,0,1,0,.359,1.532,2.936,2.936,0,0,0,1.532,5.513Z" transform="translate(120.034 161.304)" fill="#061757"/>
      <path id="Path_941" data-name="Path 941" d="M1.695,6.1a3.246,3.246,0,1,0-1.3-4.4A3.245,3.245,0,0,0,1.695,6.1Z" transform="translate(133.807 168.66)" fill="#061757"/>
      <path id="Path_942" data-name="Path 942" d="M1.9,6.849A3.647,3.647,0,1,0,.444,1.9,3.646,3.646,0,0,0,1.9,6.849Z" transform="translate(147.491 175.926)" fill="#061757"/>
      <path id="Path_943" data-name="Path 943" d="M2.089,7.517A4,4,0,1,0,.488,2.09,4,4,0,0,0,2.089,7.517Z" transform="translate(161.219 183.237)" fill="#061757"/>
      <path id="Path_944" data-name="Path 944" d="M2.276,8.186A4.358,4.358,0,1,0,.531,2.276,4.356,4.356,0,0,0,2.276,8.186Z" transform="translate(174.947 190.547)" fill="#061757"/>
      <path id="Path_945" data-name="Path 945" d="M2.461,8.855A4.714,4.714,0,1,0,.574,2.461,4.716,4.716,0,0,0,2.461,8.855Z" transform="translate(188.675 197.858)" fill="#061757"/>
      <path id="Path_946" data-name="Path 946" d="M2.67,9.606A5.113,5.113,0,1,0,.623,2.67,5.111,5.111,0,0,0,2.67,9.606Z" transform="translate(202.359 205.124)" fill="#061757"/>
      <path id="Path_947" data-name="Path 947" d="M2.808,10.108A5.381,5.381,0,1,0,.656,2.81,5.382,5.382,0,0,0,2.808,10.108Z" transform="translate(216.176 212.524)" fill="#061757"/>
      <path id="Path_948" data-name="Path 948" d="M2.995,10.775A5.737,5.737,0,1,0,.7,3,5.737,5.737,0,0,0,2.995,10.775Z" transform="translate(229.904 219.835)" fill="#061757"/>
      <path id="Path_949" data-name="Path 949" d="M3.158,11.361a6.048,6.048,0,1,0-2.421-8.2A6.047,6.047,0,0,0,3.158,11.361Z" transform="translate(243.677 227.19)" fill="#061757"/>
      <path id="Path_950" data-name="Path 950" d="M3.319,11.945A6.359,6.359,0,1,0,.776,3.319,6.361,6.361,0,0,0,3.319,11.945Z" transform="translate(257.449 234.546)" fill="#061757"/>
      <path id="Path_951" data-name="Path 951" d="M3.482,12.528A6.669,6.669,0,1,0,.813,3.483,6.669,6.669,0,0,0,3.482,12.528Z" transform="translate(271.222 241.901)" fill="#061757"/>
      <path id="Path_952" data-name="Path 952" d="M3.621,13.03A6.936,6.936,0,1,0,.846,3.621,6.936,6.936,0,0,0,3.621,13.03Z" transform="translate(285.039 249.301)" fill="#061757"/>
      <path id="Path_953" data-name="Path 953" d="M3.761,13.532A7.2,7.2,0,1,0,.878,3.762,7.2,7.2,0,0,0,3.761,13.532Z" transform="translate(298.856 256.701)" fill="#061757"/>
      <path id="Path_954" data-name="Path 954" d="M.093.335A.178.178,0,0,0,.333.264.178.178,0,1,0,.021.093.179.179,0,0,0,.093.335Z" transform="translate(16.538 124.479)" fill="#061757"/>
      <path id="Path_955" data-name="Path 955" d="M.3,1.086A.578.578,0,1,0,.071.3.578.578,0,0,0,.3,1.086Z" transform="translate(30.221 131.745)" fill="#061757"/>
      <path id="Path_956" data-name="Path 956" d="M.511,1.837A.977.977,0,1,0,.119.51.978.978,0,0,0,.511,1.837Z" transform="translate(43.905 139.012)" fill="#061757"/>
      <path id="Path_957" data-name="Path 957" d="M.719,2.59A1.379,1.379,0,1,0,.167.719,1.381,1.381,0,0,0,.719,2.59Z" transform="translate(57.589 146.278)" fill="#061757"/>
      <path id="Path_958" data-name="Path 958" d="M.93,3.341A1.778,1.778,0,1,0,.217.928,1.777,1.777,0,0,0,.93,3.341Z" transform="translate(71.272 153.545)" fill="#061757"/>
      <path id="Path_959" data-name="Path 959" d="M1.114,4.009a2.134,2.134,0,1,0-.854-2.9A2.135,2.135,0,0,0,1.114,4.009Z" transform="translate(85.001 160.856)" fill="#061757"/>
      <path id="Path_960" data-name="Path 960" d="M1.323,4.76A2.534,2.534,0,1,0,.309,1.323,2.535,2.535,0,0,0,1.323,4.76Z" transform="translate(98.684 168.122)" fill="#061757"/>
      <ellipse id="Ellipse_25" data-name="Ellipse 25" cx="2.935" cy="2.935" rx="2.935" ry="2.935" transform="translate(112.368 175.389)" fill="#061757"/>
      <path id="Path_961" data-name="Path 961" d="M1.695,6.1a3.246,3.246,0,1,0-1.3-4.4A3.247,3.247,0,0,0,1.695,6.1Z" transform="translate(126.141 182.744)" fill="#061757"/>
      <path id="Path_962" data-name="Path 962" d="M1.9,6.849A3.646,3.646,0,1,0,.445,1.9,3.644,3.644,0,0,0,1.9,6.849Z" transform="translate(139.824 190.01)" fill="#061757"/>
      <path id="Path_963" data-name="Path 963" d="M2.09,7.518A4,4,0,1,0,.488,2.09,4,4,0,0,0,2.09,7.518Z" transform="translate(153.552 197.32)" fill="#061757"/>
      <path id="Path_964" data-name="Path 964" d="M2.276,8.186A4.358,4.358,0,1,0,.531,2.276,4.358,4.358,0,0,0,2.276,8.186Z" transform="translate(167.28 204.631)" fill="#061757"/>
      <path id="Path_965" data-name="Path 965" d="M2.461,8.855A4.714,4.714,0,1,0,.574,2.461,4.714,4.714,0,0,0,2.461,8.855Z" transform="translate(181.009 211.942)" fill="#061757"/>
      <path id="Path_966" data-name="Path 966" d="M2.67,9.606A5.114,5.114,0,1,0,.624,2.67,5.113,5.113,0,0,0,2.67,9.606Z" transform="translate(194.692 219.208)" fill="#061757"/>
      <path id="Path_967" data-name="Path 967" d="M2.809,10.108a5.381,5.381,0,1,0-2.153-7.3A5.38,5.38,0,0,0,2.809,10.108Z" transform="translate(208.509 226.608)" fill="#061757"/>
      <path id="Path_968" data-name="Path 968" d="M2.994,10.775A5.737,5.737,0,1,0,.7,3,5.739,5.739,0,0,0,2.994,10.775Z" transform="translate(222.238 233.919)" fill="#061757"/>
      <path id="Path_969" data-name="Path 969" d="M3.157,11.361a6.048,6.048,0,1,0-2.419-8.2A6.048,6.048,0,0,0,3.157,11.361Z" transform="translate(236.01 241.274)" fill="#061757"/>
      <path id="Path_970" data-name="Path 970" d="M3.32,11.945A6.358,6.358,0,1,0,.775,3.319,6.359,6.359,0,0,0,3.32,11.945Z" transform="translate(249.783 248.63)" fill="#061757"/>
      <path id="Path_971" data-name="Path 971" d="M3.483,12.53A6.67,6.67,0,1,0,.814,3.483,6.671,6.671,0,0,0,3.483,12.53Z" transform="translate(263.555 255.985)" fill="#061757"/>
      <path id="Path_972" data-name="Path 972" d="M3.623,13.03A6.936,6.936,0,1,0,.845,3.621,6.937,6.937,0,0,0,3.623,13.03Z" transform="translate(277.372 263.385)" fill="#061757"/>
      <path id="Path_973" data-name="Path 973" d="M3.344,12.028A6.4,6.4,0,1,0,.781,3.344,6.4,6.4,0,0,0,3.344,12.028Z" transform="translate(291.99 271.585)" fill="#061757"/>
      <path id="Path_974" data-name="Path 974" d="M.093.335A.178.178,0,1,0,.264.022.178.178,0,0,0,.093.335Z" transform="translate(8.871 138.563)" fill="#061757"/>
      <path id="Path_975" data-name="Path 975" d="M.3,1.086A.578.578,0,1,0,.07.3.579.579,0,0,0,.3,1.086Z" transform="translate(22.555 145.829)" fill="#061757"/>
      <path id="Path_976" data-name="Path 976" d="M.51,1.837A.978.978,0,1,0,.119.511.978.978,0,0,0,.51,1.837Z" transform="translate(36.239 153.096)" fill="#061757"/>
      <path id="Path_977" data-name="Path 977" d="M.72,2.59A1.379,1.379,0,1,0,.169.719,1.379,1.379,0,0,0,.72,2.59Z" transform="translate(49.922 160.362)" fill="#061757"/>
      <path id="Path_978" data-name="Path 978" d="M.929,3.341A1.779,1.779,0,1,0,.217.929,1.778,1.778,0,0,0,.929,3.341Z" transform="translate(63.606 167.628)" fill="#061757"/>
      <path id="Path_979" data-name="Path 979" d="M1.115,4.009a2.134,2.134,0,1,0-.855-2.9A2.134,2.134,0,0,0,1.115,4.009Z" transform="translate(77.334 174.94)" fill="#061757"/>
      <path id="Path_980" data-name="Path 980" d="M1.323,4.76A2.534,2.534,0,1,0,.308,1.323,2.533,2.533,0,0,0,1.323,4.76Z" transform="translate(91.018 182.206)" fill="#061757"/>
      <path id="Path_981" data-name="Path 981" d="M1.532,5.514A2.935,2.935,0,1,0,.359,1.532,2.936,2.936,0,0,0,1.532,5.514Z" transform="translate(104.701 189.472)" fill="#061757"/>
      <path id="Path_982" data-name="Path 982" d="M1.695,6.1A3.246,3.246,0,1,0,.4,1.7,3.246,3.246,0,0,0,1.695,6.1Z" transform="translate(118.474 196.827)" fill="#061757"/>
      <path id="Path_983" data-name="Path 983" d="M1.9,6.849A3.647,3.647,0,1,0,.444,1.9,3.646,3.646,0,0,0,1.9,6.849Z" transform="translate(132.158 204.094)" fill="#061757"/>
      <path id="Path_984" data-name="Path 984" d="M2.089,7.518A4,4,0,1,0,.488,2.09,4,4,0,0,0,2.089,7.518Z" transform="translate(145.886 211.404)" fill="#061757"/>
      <path id="Path_985" data-name="Path 985" d="M2.276,8.186A4.357,4.357,0,1,0,.531,2.276,4.358,4.358,0,0,0,2.276,8.186Z" transform="translate(159.614 218.715)" fill="#061757"/>
      <path id="Path_986" data-name="Path 986" d="M2.461,8.853A4.713,4.713,0,1,0,.574,2.461,4.714,4.714,0,0,0,2.461,8.853Z" transform="translate(173.342 226.026)" fill="#061757"/>
      <path id="Path_987" data-name="Path 987" d="M2.669,9.606A5.114,5.114,0,1,0,.623,2.67,5.114,5.114,0,0,0,2.669,9.606Z" transform="translate(187.025 233.292)" fill="#061757"/>
      <path id="Path_988" data-name="Path 988" d="M2.809,10.106a5.38,5.38,0,1,0-2.153-7.3A5.379,5.379,0,0,0,2.809,10.106Z" transform="translate(200.843 240.692)" fill="#061757"/>
      <path id="Path_989" data-name="Path 989" d="M2.995,10.775A5.737,5.737,0,1,0,.7,3,5.737,5.737,0,0,0,2.995,10.775Z" transform="translate(214.571 248.004)" fill="#061757"/>
      <path id="Path_990" data-name="Path 990" d="M3.158,11.361a6.048,6.048,0,1,0-2.421-8.2A6.047,6.047,0,0,0,3.158,11.361Z" transform="translate(228.344 255.358)" fill="#061757"/>
      <path id="Path_991" data-name="Path 991" d="M3.319,11.946A6.359,6.359,0,1,0,.776,3.32,6.361,6.361,0,0,0,3.319,11.946Z" transform="translate(242.116 262.713)" fill="#061757"/>
      <path id="Path_992" data-name="Path 992" d="M3.482,12.528A6.669,6.669,0,1,0,.813,3.481,6.669,6.669,0,0,0,3.482,12.528Z" transform="translate(255.888 270.069)" fill="#061757"/>
      <path id="Path_993" data-name="Path 993" d="M3.621,13.03A6.936,6.936,0,1,0,.846,3.621,6.936,6.936,0,0,0,3.621,13.03Z" transform="translate(269.706 277.469)" fill="#061757"/>
      <path id="Path_994" data-name="Path 994" d="M2.414,8.686A4.624,4.624,0,1,0,.563,2.415,4.624,4.624,0,0,0,2.414,8.686Z" transform="translate(286.102 287.448)" fill="#061757"/>
      <path id="Path_995" data-name="Path 995" d="M.046.167A.088.088,0,0,0,.167.131.088.088,0,0,0,.131.01.091.091,0,0,0,.01.046.091.091,0,0,0,.046.167Z" transform="translate(1.294 152.736)" fill="#061757"/>
      <path id="Path_996" data-name="Path 996" d="M.3,1.086A.578.578,0,1,0,.071.3.58.58,0,0,0,.3,1.086Z" transform="translate(14.888 159.913)" fill="#061757"/>
      <path id="Path_997" data-name="Path 997" d="M.511,1.838A.978.978,0,1,0,.119.511.978.978,0,0,0,.511,1.838Z" transform="translate(28.572 167.179)" fill="#061757"/>
      <path id="Path_998" data-name="Path 998" d="M.719,2.59A1.379,1.379,0,1,0,.167.719,1.381,1.381,0,0,0,.719,2.59Z" transform="translate(42.256 174.446)" fill="#061757"/>
      <path id="Path_999" data-name="Path 999" d="M.928,3.341A1.779,1.779,0,1,0,.217.929,1.779,1.779,0,0,0,.928,3.341Z" transform="translate(55.939 181.712)" fill="#061757"/>
      <path id="Path_1000" data-name="Path 1000" d="M1.115,4.009a2.134,2.134,0,1,0-.854-2.9A2.135,2.135,0,0,0,1.115,4.009Z" transform="translate(69.667 189.024)" fill="#061757"/>
      <path id="Path_1001" data-name="Path 1001" d="M1.323,4.76A2.534,2.534,0,1,0,.309,1.323,2.535,2.535,0,0,0,1.323,4.76Z" transform="translate(83.351 196.29)" fill="#061757"/>
      <path id="Path_1002" data-name="Path 1002" d="M1.532,5.514A2.935,2.935,0,1,0,.357,1.532,2.934,2.934,0,0,0,1.532,5.514Z" transform="translate(97.035 203.556)" fill="#061757"/>
      <path id="Path_1003" data-name="Path 1003" d="M1.694,6.1a3.246,3.246,0,1,0-1.3-4.4A3.248,3.248,0,0,0,1.694,6.1Z" transform="translate(110.807 210.911)" fill="#061757"/>
      <path id="Path_1004" data-name="Path 1004" d="M1.9,6.849A3.646,3.646,0,1,0,.445,1.9,3.644,3.644,0,0,0,1.9,6.849Z" transform="translate(124.491 218.177)" fill="#061757"/>
      <path id="Path_1005" data-name="Path 1005" d="M2.089,7.518A4,4,0,1,0,.488,2.09,4,4,0,0,0,2.089,7.518Z" transform="translate(138.219 225.488)" fill="#061757"/>
      <path id="Path_1006" data-name="Path 1006" d="M2.276,8.186A4.358,4.358,0,1,0,.531,2.276,4.357,4.357,0,0,0,2.276,8.186Z" transform="translate(151.947 232.799)" fill="#061757"/>
      <path id="Path_1007" data-name="Path 1007" d="M2.461,8.853A4.713,4.713,0,1,0,.574,2.461,4.714,4.714,0,0,0,2.461,8.853Z" transform="translate(165.676 240.11)" fill="#061757"/>
      <path id="Path_1008" data-name="Path 1008" d="M2.67,9.606A5.114,5.114,0,1,0,.624,2.67,5.115,5.115,0,0,0,2.67,9.606Z" transform="translate(179.359 247.376)" fill="#061757"/>
      <path id="Path_1009" data-name="Path 1009" d="M2.809,10.106a5.38,5.38,0,1,0-2.153-7.3A5.379,5.379,0,0,0,2.809,10.106Z" transform="translate(193.176 254.776)" fill="#061757"/>
      <path id="Path_1010" data-name="Path 1010" d="M2.995,10.776A5.737,5.737,0,1,0,.7,3,5.737,5.737,0,0,0,2.995,10.776Z" transform="translate(206.904 262.087)" fill="#061757"/>
      <path id="Path_1011" data-name="Path 1011" d="M3.157,11.361a6.048,6.048,0,1,0-2.419-8.2A6.048,6.048,0,0,0,3.157,11.361Z" transform="translate(220.677 269.442)" fill="#061757"/>
      <path id="Path_1012" data-name="Path 1012" d="M3.32,11.944A6.358,6.358,0,1,0,.775,3.32,6.357,6.357,0,0,0,3.32,11.944Z" transform="translate(234.45 276.797)" fill="#061757"/>
      <path id="Path_1013" data-name="Path 1013" d="M3.483,12.529A6.67,6.67,0,1,0,.814,3.483,6.667,6.667,0,0,0,3.483,12.529Z" transform="translate(248.222 284.153)" fill="#061757"/>
      <path id="Path_1014" data-name="Path 1014" d="M3.621,13.03A6.936,6.936,0,1,0,.845,3.621,6.938,6.938,0,0,0,3.621,13.03Z" transform="translate(262.039 291.553)" fill="#061757"/>
      <path id="Path_1015" data-name="Path 1015" d="M1.138,4.092A2.178,2.178,0,1,0,.266,1.138,2.177,2.177,0,0,0,1.138,4.092Z" transform="translate(280.882 303.978)" fill="#061757"/>
      <path id="Path_1016" data-name="Path 1016" d="M.255.918A.489.489,0,1,0,.06.255.489.489,0,0,0,.255.918Z" transform="translate(7.311 174.086)" fill="#061757"/>
      <path id="Path_1017" data-name="Path 1017" d="M.511,1.838A.979.979,0,1,0,.12.511.978.978,0,0,0,.511,1.838Z" transform="translate(20.905 181.263)" fill="#061757"/>
      <path id="Path_1018" data-name="Path 1018" d="M.72,2.59A1.379,1.379,0,1,0,.169.719,1.379,1.379,0,0,0,.72,2.59Z" transform="translate(34.589 188.53)" fill="#061757"/>
      <path id="Path_1019" data-name="Path 1019" d="M.929,3.341A1.779,1.779,0,1,0,.217.929,1.78,1.78,0,0,0,.929,3.341Z" transform="translate(48.273 195.796)" fill="#061757"/>
      <path id="Path_1020" data-name="Path 1020" d="M1.114,4.009a2.134,2.134,0,1,0-.854-2.9A2.135,2.135,0,0,0,1.114,4.009Z" transform="translate(62.001 203.108)" fill="#061757"/>
      <path id="Path_1021" data-name="Path 1021" d="M1.323,4.76A2.534,2.534,0,1,0,.308,1.323,2.533,2.533,0,0,0,1.323,4.76Z" transform="translate(75.685 210.374)" fill="#061757"/>
      <path id="Path_1022" data-name="Path 1022" d="M1.532,5.514A2.935,2.935,0,1,0,.357,1.532,2.936,2.936,0,0,0,1.532,5.514Z" transform="translate(89.368 217.64)" fill="#061757"/>
      <path id="Path_1023" data-name="Path 1023" d="M1.695,6.1a3.246,3.246,0,1,0-1.3-4.4A3.247,3.247,0,0,0,1.695,6.1Z" transform="translate(103.141 224.995)" fill="#061757"/>
      <path id="Path_1024" data-name="Path 1024" d="M1.9,6.849A3.647,3.647,0,1,0,.444,1.9,3.646,3.646,0,0,0,1.9,6.849Z" transform="translate(116.824 232.262)" fill="#061757"/>
      <path id="Path_1025" data-name="Path 1025" d="M2.089,7.518A4,4,0,1,0,.488,2.09,4,4,0,0,0,2.089,7.518Z" transform="translate(130.553 239.572)" fill="#061757"/>
      <path id="Path_1026" data-name="Path 1026" d="M2.274,8.186A4.358,4.358,0,1,0,.531,2.276,4.359,4.359,0,0,0,2.274,8.186Z" transform="translate(144.281 246.883)" fill="#061757"/>
      <path id="Path_1027" data-name="Path 1027" d="M2.461,8.853A4.713,4.713,0,1,0,.574,2.461,4.711,4.711,0,0,0,2.461,8.853Z" transform="translate(158.008 254.194)" fill="#061757"/>
      <path id="Path_1028" data-name="Path 1028" d="M2.669,9.606A5.114,5.114,0,1,0,.623,2.67,5.114,5.114,0,0,0,2.669,9.606Z" transform="translate(171.692 261.46)" fill="#061757"/>
      <path id="Path_1029" data-name="Path 1029" d="M2.809,10.106a5.38,5.38,0,1,0-2.153-7.3A5.379,5.379,0,0,0,2.809,10.106Z" transform="translate(185.51 268.86)" fill="#061757"/>
      <path id="Path_1030" data-name="Path 1030" d="M3,10.776A5.736,5.736,0,1,0,.7,2.994,5.737,5.737,0,0,0,3,10.776Z" transform="translate(199.237 276.171)" fill="#061757"/>
      <path id="Path_1031" data-name="Path 1031" d="M3.157,11.359a6.047,6.047,0,1,0-2.421-8.2A6.045,6.045,0,0,0,3.157,11.359Z" transform="translate(213.011 283.526)" fill="#061757"/>
      <path id="Path_1032" data-name="Path 1032" d="M3.319,11.944A6.359,6.359,0,1,0,.776,3.32,6.359,6.359,0,0,0,3.319,11.944Z" transform="translate(226.783 290.881)" fill="#061757"/>
      <path id="Path_1033" data-name="Path 1033" d="M3.482,12.529A6.67,6.67,0,1,0,.813,3.482,6.668,6.668,0,0,0,3.482,12.529Z" transform="translate(240.555 298.237)" fill="#061757"/>
      <path id="Path_1034" data-name="Path 1034" d="M2.972,10.691A5.691,5.691,0,1,0,.693,2.972,5.689,5.689,0,0,0,2.972,10.691Z" transform="translate(255.617 306.882)" fill="#061757"/>
      <path id="Path_1035" data-name="Path 1035" d="M.024.084A.045.045,0,0,0,.084.066.047.047,0,0,0,.066.005a.045.045,0,0,0-.06.018A.044.044,0,0,0,.024.084Z" transform="translate(275.35 320.197)" fill="#061757"/>
      <path id="Path_1036" data-name="Path 1036" d="M.07.25A.133.133,0,1,0,.016.07.133.133,0,0,0,.07.25Z" transform="translate(0 188.526)" fill="#061757"/>
      <path id="Path_1037" data-name="Path 1037" d="M.488,1.754A.933.933,0,1,0,.114.487.934.934,0,0,0,.488,1.754Z" transform="translate(13.283 195.392)" fill="#061757"/>
      <path id="Path_1038" data-name="Path 1038" d="M.719,2.588A1.378,1.378,0,1,0,.167.719,1.379,1.379,0,0,0,.719,2.588Z" transform="translate(26.923 202.614)" fill="#061757"/>
      <path id="Path_1039" data-name="Path 1039" d="M.928,3.341A1.779,1.779,0,1,0,.217.929,1.779,1.779,0,0,0,.928,3.341Z" transform="translate(40.606 209.88)" fill="#061757"/>
      <path id="Path_1040" data-name="Path 1040" d="M1.115,4.009a2.134,2.134,0,1,0-.854-2.9A2.136,2.136,0,0,0,1.115,4.009Z" transform="translate(54.334 217.191)" fill="#061757"/>
      <path id="Path_1041" data-name="Path 1041" d="M1.323,4.76A2.534,2.534,0,1,0,.309,1.323,2.535,2.535,0,0,0,1.323,4.76Z" transform="translate(68.018 224.458)" fill="#061757"/>
      <path id="Path_1042" data-name="Path 1042" d="M1.532,5.514A2.935,2.935,0,1,0,.357,1.532,2.934,2.934,0,0,0,1.532,5.514Z" transform="translate(81.702 231.724)" fill="#061757"/>
      <path id="Path_1043" data-name="Path 1043" d="M1.694,6.1a3.247,3.247,0,1,0-1.3-4.4A3.248,3.248,0,0,0,1.694,6.1Z" transform="translate(95.474 239.079)" fill="#061757"/>
      <path id="Path_1044" data-name="Path 1044" d="M1.9,6.849A3.646,3.646,0,1,0,.445,1.9,3.645,3.645,0,0,0,1.9,6.849Z" transform="translate(109.158 246.346)" fill="#061757"/>
      <path id="Path_1045" data-name="Path 1045" d="M2.089,7.518a4,4,0,1,0-1.6-5.429A4,4,0,0,0,2.089,7.518Z" transform="translate(122.886 253.656)" fill="#061757"/>
      <path id="Path_1046" data-name="Path 1046" d="M2.276,8.186A4.358,4.358,0,1,0,.531,2.276,4.357,4.357,0,0,0,2.276,8.186Z" transform="translate(136.614 260.967)" fill="#061757"/>
      <path id="Path_1047" data-name="Path 1047" d="M2.46,8.853A4.713,4.713,0,1,0,.575,2.461,4.714,4.714,0,0,0,2.46,8.853Z" transform="translate(150.342 268.278)" fill="#061757"/>
      <path id="Path_1048" data-name="Path 1048" d="M2.67,9.606A5.114,5.114,0,1,0,.624,2.67,5.116,5.116,0,0,0,2.67,9.606Z" transform="translate(164.026 275.544)" fill="#061757"/>
      <path id="Path_1049" data-name="Path 1049" d="M2.809,10.106a5.38,5.38,0,1,0-2.153-7.3A5.379,5.379,0,0,0,2.809,10.106Z" transform="translate(177.843 282.944)" fill="#061757"/>
      <path id="Path_1050" data-name="Path 1050" d="M2.995,10.775A5.736,5.736,0,1,0,.7,2.995,5.735,5.735,0,0,0,2.995,10.775Z" transform="translate(191.571 290.254)" fill="#061757"/>
      <path id="Path_1051" data-name="Path 1051" d="M3.158,11.359a6.047,6.047,0,1,0-2.421-8.2A6.048,6.048,0,0,0,3.158,11.359Z" transform="translate(205.343 297.61)" fill="#061757"/>
      <path id="Path_1052" data-name="Path 1052" d="M3.32,11.944A6.358,6.358,0,1,0,.775,3.32,6.357,6.357,0,0,0,3.32,11.944Z" transform="translate(219.117 304.965)" fill="#061757"/>
      <path id="Path_1053" data-name="Path 1053" d="M3.436,12.362A6.581,6.581,0,1,0,.8,3.436,6.58,6.58,0,0,0,3.436,12.362Z" transform="translate(232.978 312.41)" fill="#061757"/>
      <path id="Path_1054" data-name="Path 1054" d="M.836,3.006A1.6,1.6,0,1,0,.2.836,1.6,1.6,0,0,0,.836,3.006Z" transform="translate(252.042 325.058)" fill="#061757"/>
      <path id="Path_1055" data-name="Path 1055" d="M.232.836a.445.445,0,1,0-.178-.6A.446.446,0,0,0,.232.836Z" transform="translate(6.106 209.965)" fill="#061757"/>
      <path id="Path_1056" data-name="Path 1056" d="M.719,2.589A1.378,1.378,0,1,0,.169.72,1.379,1.379,0,0,0,.719,2.589Z" transform="translate(19.256 216.698)" fill="#061757"/>
      <path id="Path_1057" data-name="Path 1057" d="M.929,3.341A1.779,1.779,0,1,0,.217.929,1.78,1.78,0,0,0,.929,3.341Z" transform="translate(32.94 223.964)" fill="#061757"/>
      <path id="Path_1058" data-name="Path 1058" d="M1.114,4.01a2.134,2.134,0,1,0-.854-2.9A2.135,2.135,0,0,0,1.114,4.01Z" transform="translate(46.668 231.275)" fill="#061757"/>
      <path id="Path_1059" data-name="Path 1059" d="M1.323,4.761A2.534,2.534,0,1,0,.308,1.323,2.533,2.533,0,0,0,1.323,4.761Z" transform="translate(60.351 238.541)" fill="#061757"/>
      <path id="Path_1060" data-name="Path 1060" d="M1.532,5.512A2.935,2.935,0,1,0,.357,1.532,2.934,2.934,0,0,0,1.532,5.512Z" transform="translate(74.034 245.808)" fill="#061757"/>
      <path id="Path_1061" data-name="Path 1061" d="M1.695,6.1a3.246,3.246,0,1,0-1.3-4.4A3.244,3.244,0,0,0,1.695,6.1Z" transform="translate(87.808 253.163)" fill="#061757"/>
      <path id="Path_1062" data-name="Path 1062" d="M1.9,6.849A3.647,3.647,0,1,0,.444,1.9,3.649,3.649,0,0,0,1.9,6.849Z" transform="translate(101.491 260.43)" fill="#061757"/>
      <path id="Path_1063" data-name="Path 1063" d="M2.09,7.518a4,4,0,1,0-1.6-5.429A4,4,0,0,0,2.09,7.518Z" transform="translate(115.219 267.74)" fill="#061757"/>
      <path id="Path_1064" data-name="Path 1064" d="M2.274,8.186A4.358,4.358,0,1,0,.531,2.276,4.358,4.358,0,0,0,2.274,8.186Z" transform="translate(128.948 275.051)" fill="#061757"/>
      <path id="Path_1065" data-name="Path 1065" d="M2.461,8.853A4.713,4.713,0,1,0,.574,2.461,4.712,4.712,0,0,0,2.461,8.853Z" transform="translate(142.675 282.362)" fill="#061757"/>
      <path id="Path_1066" data-name="Path 1066" d="M2.669,9.606A5.114,5.114,0,1,0,.623,2.67,5.116,5.116,0,0,0,2.669,9.606Z" transform="translate(156.359 289.628)" fill="#061757"/>
      <path id="Path_1067" data-name="Path 1067" d="M2.808,10.106a5.38,5.38,0,1,0-2.153-7.3A5.379,5.379,0,0,0,2.808,10.106Z" transform="translate(170.176 297.028)" fill="#061757"/>
      <path id="Path_1068" data-name="Path 1068" d="M3,10.775A5.735,5.735,0,1,0,.7,2.995,5.735,5.735,0,0,0,3,10.775Z" transform="translate(183.904 304.338)" fill="#061757"/>
      <ellipse id="Ellipse_26" data-name="Ellipse 26" cx="6.047" cy="6.047" rx="6.047" ry="6.047" transform="translate(196.214 313.654) rotate(-16.438)" fill="#061757"/>
      <path id="Path_1069" data-name="Path 1069" d="M3.32,11.944A6.359,6.359,0,1,0,.775,3.32,6.359,6.359,0,0,0,3.32,11.944Z" transform="translate(211.449 319.049)" fill="#061757"/>
      <path id="Path_1070" data-name="Path 1070" d="M1.51,5.429A2.89,2.89,0,1,0,.352,1.509,2.891,2.891,0,0,0,1.51,5.429Z" transform="translate(229.002 330.184)" fill="#061757"/>
      <path id="Path_1071" data-name="Path 1071" d="M.325,1.17A.623.623,0,1,0,.075.326.621.621,0,0,0,.325,1.17Z" transform="translate(12.345 231.537)" fill="#061757"/>
      <path id="Path_1072" data-name="Path 1072" d="M.9,3.257A1.734,1.734,0,1,0,.211.905,1.733,1.733,0,0,0,.9,3.257Z" transform="translate(25.317 238.092)" fill="#061757"/>
      <path id="Path_1073" data-name="Path 1073" d="M1.115,4.01a2.134,2.134,0,1,0-.854-2.9A2.136,2.136,0,0,0,1.115,4.01Z" transform="translate(39.001 245.359)" fill="#061757"/>
      <path id="Path_1074" data-name="Path 1074" d="M1.323,4.761A2.535,2.535,0,1,0,.309,1.323,2.534,2.534,0,0,0,1.323,4.761Z" transform="translate(52.685 252.625)" fill="#061757"/>
      <path id="Path_1075" data-name="Path 1075" d="M1.533,5.512A2.934,2.934,0,1,0,.358,1.532,2.932,2.932,0,0,0,1.533,5.512Z" transform="translate(66.368 259.892)" fill="#061757"/>
      <path id="Path_1076" data-name="Path 1076" d="M1.694,6.1a3.246,3.246,0,1,0-1.3-4.4A3.247,3.247,0,0,0,1.694,6.1Z" transform="translate(80.14 267.247)" fill="#061757"/>
      <path id="Path_1077" data-name="Path 1077" d="M1.9,6.85A3.646,3.646,0,1,0,.445,1.9,3.646,3.646,0,0,0,1.9,6.85Z" transform="translate(93.825 274.513)" fill="#061757"/>
      <path id="Path_1078" data-name="Path 1078" d="M2.089,7.518a4,4,0,1,0-1.6-5.429A4,4,0,0,0,2.089,7.518Z" transform="translate(107.552 281.824)" fill="#061757"/>
      <path id="Path_1079" data-name="Path 1079" d="M2.276,8.186A4.358,4.358,0,1,0,.531,2.276,4.356,4.356,0,0,0,2.276,8.186Z" transform="translate(121.28 289.135)" fill="#061757"/>
      <path id="Path_1080" data-name="Path 1080" d="M2.46,8.853A4.713,4.713,0,1,0,.575,2.461,4.714,4.714,0,0,0,2.46,8.853Z" transform="translate(135.009 296.446)" fill="#061757"/>
      <path id="Path_1081" data-name="Path 1081" d="M2.67,9.6A5.113,5.113,0,1,0,.624,2.67,5.113,5.113,0,0,0,2.67,9.6Z" transform="translate(148.693 303.712)" fill="#061757"/>
      <path id="Path_1082" data-name="Path 1082" d="M2.81,10.106a5.38,5.38,0,1,0-2.154-7.3A5.38,5.38,0,0,0,2.81,10.106Z" transform="translate(162.509 311.112)" fill="#061757"/>
      <path id="Path_1083" data-name="Path 1083" d="M2.995,10.775A5.736,5.736,0,1,0,.7,2.995,5.735,5.735,0,0,0,2.995,10.775Z" transform="translate(176.238 318.422)" fill="#061757"/>
      <path id="Path_1084" data-name="Path 1084" d="M3.11,11.193A5.959,5.959,0,1,0,.727,3.111,5.959,5.959,0,0,0,3.11,11.193Z" transform="translate(190.099 325.867)" fill="#061757"/>
      <path id="Path_1085" data-name="Path 1085" d="M1.44,5.179A2.757,2.757,0,1,0,.336,1.44,2.757,2.757,0,0,0,1.44,5.179Z" transform="translate(207.385 336.735)" fill="#061757"/>
      <path id="Path_1086" data-name="Path 1086" d="M.209.751A.4.4,0,1,0,.049.209.4.4,0,0,0,.209.751Z" transform="translate(18.985 253.511)" fill="#061757"/>
      <path id="Path_1087" data-name="Path 1087" d="M.905,3.258A1.734,1.734,0,1,0,.211.9,1.733,1.733,0,0,0,.905,3.258Z" transform="translate(31.735 259.843)" fill="#061757"/>
      <path id="Path_1088" data-name="Path 1088" d="M1.324,4.761A2.534,2.534,0,1,0,.309,1.323,2.534,2.534,0,0,0,1.324,4.761Z" transform="translate(45.018 266.709)" fill="#061757"/>
      <path id="Path_1089" data-name="Path 1089" d="M1.532,5.512A2.935,2.935,0,1,0,.357,1.532,2.934,2.934,0,0,0,1.532,5.512Z" transform="translate(58.701 273.976)" fill="#061757"/>
      <path id="Path_1090" data-name="Path 1090" d="M1.695,6.1a3.246,3.246,0,1,0-1.3-4.4A3.246,3.246,0,0,0,1.695,6.1Z" transform="translate(72.474 281.331)" fill="#061757"/>
      <path id="Path_1091" data-name="Path 1091" d="M1.9,6.85A3.647,3.647,0,1,0,.445,1.9,3.649,3.649,0,0,0,1.9,6.85Z" transform="translate(86.157 288.597)" fill="#061757"/>
      <path id="Path_1092" data-name="Path 1092" d="M2.09,7.518a4,4,0,1,0-1.6-5.429A4,4,0,0,0,2.09,7.518Z" transform="translate(99.886 295.908)" fill="#061757"/>
      <path id="Path_1093" data-name="Path 1093" d="M2.274,8.186A4.358,4.358,0,1,0,.531,2.274,4.358,4.358,0,0,0,2.274,8.186Z" transform="translate(113.615 303.219)" fill="#061757"/>
      <path id="Path_1094" data-name="Path 1094" d="M2.461,8.853A4.713,4.713,0,1,0,.574,2.461,4.712,4.712,0,0,0,2.461,8.853Z" transform="translate(127.342 310.53)" fill="#061757"/>
      <path id="Path_1095" data-name="Path 1095" d="M2.669,9.6A5.113,5.113,0,1,0,.623,2.67,5.113,5.113,0,0,0,2.669,9.6Z" transform="translate(141.026 317.796)" fill="#061757"/>
      <path id="Path_1096" data-name="Path 1096" d="M2.809,10.107a5.38,5.38,0,1,0-2.153-7.3A5.381,5.381,0,0,0,2.809,10.107Z" transform="translate(154.843 325.195)" fill="#061757"/>
      <path id="Path_1097" data-name="Path 1097" d="M2.461,8.855A4.714,4.714,0,1,0,.574,2.461,4.713,4.713,0,0,0,2.461,8.855Z" transform="translate(169.594 333.529)" fill="#061757"/>
      <path id="Path_1098" data-name="Path 1098" d="M.72,2.589A1.378,1.378,0,1,0,.169.72,1.376,1.376,0,0,0,.72,2.589Z" transform="translate(187.013 344.531)" fill="#061757"/>
      <path id="Path_1099" data-name="Path 1099" d="M.394,1.42A.756.756,0,1,0,.092.4.755.755,0,0,0,.394,1.42Z" transform="translate(39.131 282.572)" fill="#061757"/>
      <path id="Path_1100" data-name="Path 1100" d="M.975,3.509A1.868,1.868,0,1,0,.228.975,1.867,1.867,0,0,0,.975,3.509Z" transform="translate(52.103 289.127)" fill="#061757"/>
      <path id="Path_1101" data-name="Path 1101" d="M1.487,5.345A2.845,2.845,0,1,0,.347,1.487,2.846,2.846,0,0,0,1.487,5.345Z" transform="translate(65.207 295.815)" fill="#061757"/>
      <path id="Path_1102" data-name="Path 1102" d="M1.9,6.85A3.646,3.646,0,1,0,.444,1.9,3.646,3.646,0,0,0,1.9,6.85Z" transform="translate(78.491 302.681)" fill="#061757"/>
      <path id="Path_1103" data-name="Path 1103" d="M2.089,7.518a4,4,0,1,0-1.6-5.429A4,4,0,0,0,2.089,7.518Z" transform="translate(92.219 309.992)" fill="#061757"/>
      <ellipse id="Ellipse_27" data-name="Ellipse 27" cx="4.358" cy="4.358" rx="4.358" ry="4.358" transform="translate(104.329 320.158) rotate(-30.881)" fill="#061757"/>
      <path id="Path_1104" data-name="Path 1104" d="M2.182,7.853A4.18,4.18,0,1,0,.51,2.183,4.18,4.18,0,0,0,2.182,7.853Z" transform="translate(120.209 325.147)" fill="#061757"/>
      <path id="Path_1105" data-name="Path 1105" d="M1.695,6.1a3.246,3.246,0,1,0-1.3-4.4A3.245,3.245,0,0,0,1.695,6.1Z" transform="translate(135.227 333.748)" fill="#061757"/>
      <path id="Path_1106" data-name="Path 1106" d="M.859,3.09A1.645,1.645,0,1,0,.2.86,1.643,1.643,0,0,0,.859,3.09Z" transform="translate(150.912 343.015)" fill="#061757"/>
      <path id="Path_1107" data-name="Path 1107" d="M.023.084A.047.047,0,0,0,.084.066.046.046,0,0,0,.066.005.047.047,0,0,0,.005.023.047.047,0,0,0,.023.084Z" transform="translate(166.597 352.283)" fill="#061757"/>
    </g>
  </g>
</svg>
