<svg xmlns:xlink="http://www.w3.org/1999/xlink" xmlns="http://www.w3.org/2000/svg" width="83.816" height="61.871" viewBox="0 0 83.816 61.871">
  <g id="_9260_-_Currency" data-name="9260 - Currency" transform="translate(-256 -457.081)">
    <g id="Group_318" data-name="Group 318" transform="translate(256 479.086)">
      <path id="Path_1817" d="M327.476,900.206H257.31A1.31,1.31,0,0,1,256,898.9V861.65a1.31,1.31,0,0,1,1.31-1.31h70.167a1.31,1.31,0,0,1,1.31,1.31V898.9A1.31,1.31,0,0,1,327.476,900.206Zm-68.857-2.619h67.547V862.959H258.619Z" transform="translate(-256 -860.34)" fill="#FFFFFF"></path>
      <path id="Path_1818" d="M422.167,998.683H375.833a1.31,1.31,0,0,1-1.31-1.31,4.459,4.459,0,0,0-4.454-4.454,1.31,1.31,0,0,1-1.31-1.31V977.954a1.31,1.31,0,0,1,1.31-1.31,4.459,4.459,0,0,0,4.454-4.454,1.31,1.31,0,0,1,1.31-1.31h46.334a1.31,1.31,0,0,1,1.31,1.31,4.459,4.459,0,0,0,4.454,4.454,1.31,1.31,0,0,1,1.31,1.31v13.656a1.31,1.31,0,0,1-1.31,1.31,4.459,4.459,0,0,0-4.454,4.454A1.31,1.31,0,0,1,422.167,998.683Zm-45.145-2.619h43.957a7.093,7.093,0,0,1,5.642-5.642v-11.28a7.093,7.093,0,0,1-5.642-5.642H377.021a7.093,7.093,0,0,1-5.642,5.642v11.279A7.093,7.093,0,0,1,377.021,996.064Z" transform="translate(-362.607 -964.848)" fill="#FFFFFF"></path>
      <g id="Group_317" data-name="Group 317" transform="translate(17.549 17.378)">
        <circle id="Ellipse_54" data-name="Ellipse 54" cx="2.555" cy="2.555" r="2.555" transform="translate(32.578)" fill="#FFFFFF"></circle>
        <circle id="Ellipse_55" data-name="Ellipse 55" cx="2.555" cy="2.555" r="2.555" fill="#FFFFFF"></circle>
      </g>
      <path id="Path_1819" d="M804.685,1114.211a6.825,6.825,0,1,1,6.825-6.825A6.833,6.833,0,0,1,804.685,1114.211Zm0-11.03a4.205,4.205,0,1,0,4.206,4.205A4.21,4.21,0,0,0,804.685,1103.18Z" transform="translate(-768.292 -1087.453)" fill="#FFFFFF"></path>
    </g>
    <g id="Group_319" data-name="Group 319" transform="translate(256 457.081)">
      <path id="Path_1820" d="M791.672,498.126a1.31,1.31,0,0,1-.709-2.412l9.929-6.372-18.7-29.142L749,481.5a1.31,1.31,0,0,1-1.415-2.2l34.287-22.005a1.31,1.31,0,0,1,1.809.395L803.8,489.029a1.31,1.31,0,0,1-.395,1.81l-11.031,7.08A1.3,1.3,0,0,1,791.672,498.126Z" transform="translate(-720.195 -457.081)" fill="#FFFFFF"></path>
      <path id="Path_1821" d="M982.887,681.173a1.308,1.308,0,0,1-1.1-.6l-4.977-7.755a7.088,7.088,0,0,1-7.8-1.7l-15.347,9.851a1.31,1.31,0,0,1-1.415-2.2L968.6,668.268a1.31,1.31,0,0,1,1.81.4,4.459,4.459,0,0,0,6.154,1.343,1.31,1.31,0,0,1,1.809.395l5.618,8.754a1.31,1.31,0,0,1-1.1,2.017Z" transform="translate(-913.687 -656.548)" fill="#FFFFFF"></path>
      <path id="Path_1822" d="M327.476,900.206H257.31A1.31,1.31,0,0,1,256,898.9V861.65a1.31,1.31,0,0,1,1.31-1.31h70.167a1.31,1.31,0,0,1,1.31,1.31V898.9A1.31,1.31,0,0,1,327.476,900.206Zm-68.857-2.619h67.547V862.959H258.619Z" transform="translate(-256 -838.335)" fill="#FFFFFF"></path>
    </g>
  </g>
</svg>