<svg xmlns:xlink="http://www.w3.org/1999/xlink" id="_9253_-_Income" xmlns="http://www.w3.org/2000/svg" width="94.355" height="83.136" viewBox="0 0 94.355 83.136">
  <g id="Group_267" data-name="Group 267" transform="translate(0 40.303)">
    <g id="Group_266" data-name="Group 266" transform="translate(12.735)">
      <path id="Path_1728" d="M491.038,1041.325h-.007l-26.247-.005a1.474,1.474,0,0,1,0-2.949h0l26.247.005h.006a31.08,31.08,0,0,0,16.411-4.682l32.745-20.349a3.785,3.785,0,0,0,.133-6.346,3.787,3.787,0,0,0-4.129-.083q-5.879,3.661-16.016,10.054-4.977,3.132-10.892,6.852a1.474,1.474,0,1,1-1.569-2.5q5.9-3.711,10.891-6.851,10.142-6.383,16.027-10.062a6.733,6.733,0,1,1,7.11,11.437L509.005,1036.2A34.029,34.029,0,0,1,491.038,1041.325Z" transform="translate(-463.31 -1003.396)" fill="#FFFFFF"></path>
      <path id="Path_1729" d="M503.093,1198.65H487.44a1.474,1.474,0,1,1,0-2.948h15.654a4.029,4.029,0,0,0,4.033-3.845,3.965,3.965,0,0,0-1.11-2.946,4.167,4.167,0,0,0-3-1.284H483.646c-2.777-.024-11.23-.1-16.337,5.142a14.552,14.552,0,0,0-1.334,1.582,1.474,1.474,0,1,1-2.383-1.736,17.46,17.46,0,0,1,1.606-1.9,19.663,19.663,0,0,1,10.088-5.283,37.04,37.04,0,0,1,8.381-.749h19.349a7.129,7.129,0,0,1,5.134,2.2,6.889,6.889,0,0,1,1.923,5.12A6.974,6.974,0,0,1,503.093,1198.65Z" transform="translate(-463.308 -1173.538)" fill="#FFFFFF"></path>
    </g>
    <path id="Path_1730" d="M267.752,1216.368h-7.821a3.936,3.936,0,0,1-3.932-3.932V1188.6a3.936,3.936,0,0,1,3.932-3.932h7.821a3.936,3.936,0,0,1,3.932,3.932v23.835A3.936,3.936,0,0,1,267.752,1216.368Zm-7.821-28.749a.984.984,0,0,0-.983.983v23.835a.984.984,0,0,0,.983.983h7.821a.984.984,0,0,0,.983-.983V1188.6a.984.984,0,0,0-.983-.983Z" transform="translate(-256 -1173.534)" fill="#FFFFFF"></path>
  </g>
  <g id="Group_268" data-name="Group 268" transform="translate(27.851 28.423)">
    <path id="Path_1731" d="M733.873,1099.712H713.721a4.351,4.351,0,1,1,0-8.7h20.152a4.351,4.351,0,0,1,0,8.7Zm-20.152-5.754a1.4,1.4,0,0,0,0,2.8h20.152a1.4,1.4,0,0,0,0-2.8Z" transform="translate(-709.37 -1073.748)" fill="#FFFFFF"></path>
    <path id="Path_1732" d="M733.873,1006.052H713.721a4.351,4.351,0,1,1,0-8.7h20.152a4.351,4.351,0,0,1,0,8.7Zm-20.152-5.754a1.4,1.4,0,1,0,0,2.8h20.152a1.4,1.4,0,1,0,0-2.8Z" transform="translate(-709.37 -985.842)" fill="#FFFFFF"></path>
    <path id="Path_1733" d="M733.873,912.382H713.721a4.351,4.351,0,0,1,0-8.7h20.152a4.351,4.351,0,0,1,0,8.7Zm-20.152-5.754a1.4,1.4,0,0,0,0,2.8h20.152a1.4,1.4,0,0,0,0-2.8Z" transform="translate(-709.37 -897.926)" fill="#FFFFFF"></path>
    <path id="Path_1734" d="M733.873,818.712H713.721a4.351,4.351,0,1,1,0-8.7h20.152a4.351,4.351,0,0,1,0,8.7Zm-20.152-5.754a1.4,1.4,0,0,0,0,2.8h20.152a1.4,1.4,0,0,0,0-2.8Z" transform="translate(-709.37 -810.01)" fill="#FFFFFF"></path>
  </g>
  <g id="Group_272" data-name="Group 272" transform="translate(28.959 0)">
    <g id="Group_269" data-name="Group 269">
      <path id="Path_1735" d="M740.729,373.968a13.319,13.319,0,1,1,9.418-3.9A13.232,13.232,0,0,1,740.729,373.968Zm0-23.689a10.37,10.37,0,1,0,10.37,10.37A10.382,10.382,0,0,0,740.729,350.279Z" transform="translate(-727.41 -347.33)" fill="#FFFFFF"></path>
    </g>
    <g id="Group_271" data-name="Group 271" transform="translate(8.428 5.182)">
      <path id="Path_1736" d="M873.907,467.753h0a3.931,3.931,0,0,0-1.691-1.289,15.4,15.4,0,0,0-2.616-.7,5.343,5.343,0,0,1-2.057-.65.8.8,0,0,1-.292-.635,1.01,1.01,0,0,1,.421-.83,2.785,2.785,0,0,1,1.667-.428,2.613,2.613,0,0,1,1.673.4,1.62,1.62,0,0,1,.533.8,1.2,1.2,0,0,0,1.27.843h.012a1.213,1.213,0,0,0,1.053-1.563,3.819,3.819,0,0,0-.507-1.047,3.7,3.7,0,0,0-1.727-1.337,6.19,6.19,0,0,0-2.419-.391,5.91,5.91,0,0,0-2.254.473,3.506,3.506,0,0,0-1.614,1.351,3.368,3.368,0,0,0-.525,1.881,3.074,3.074,0,0,0,.51,1.659,3.553,3.553,0,0,0,1.419,1.194,10.73,10.73,0,0,0,2.317.7,18.485,18.485,0,0,1,1.968.491,1.871,1.871,0,0,1,.819.493,1.007,1.007,0,0,1,.221.627,1.149,1.149,0,0,1-.213.689,1.635,1.635,0,0,1-.746.546,3.7,3.7,0,0,1-1.332.251,3.844,3.844,0,0,1-1.549-.262,2.094,2.094,0,0,1-.945-.685,2.2,2.2,0,0,1-.3-.644,1.221,1.221,0,0,0-2.352.654,4.214,4.214,0,0,0,.612,1.34,4.1,4.1,0,0,0,1.877,1.487,7.022,7.022,0,0,0,2.779.427,5.692,5.692,0,0,0,2.374-.541,3.9,3.9,0,0,0,1.661-1.459,3.576,3.576,0,0,0,.552-1.981A3.308,3.308,0,0,0,873.907,467.753Z" transform="translate(-864.608 -459.133)" fill="#FFFFFF"></path>
      <g id="Group_270" data-name="Group 270" transform="translate(3.269)">
        <path id="Path_1737" d="M923.839,640.586a1.474,1.474,0,0,1-1.473-1.441l-.016-.716a1.474,1.474,0,0,1,2.948-.066l.016.716a1.474,1.474,0,0,1-1.441,1.507Z" transform="translate(-922.072 -624.313)" fill="#FFFFFF"></path>
        <path id="Path_1738" d="M919.319,435.353a1.474,1.474,0,0,1-1.473-1.443l-.015-.714a1.474,1.474,0,1,1,2.948-.063l.015.714a1.474,1.474,0,0,1-1.442,1.506Z" transform="translate(-917.83 -431.69)" fill="#FFFFFF"></path>
      </g>
    </g>
  </g>
</svg>