<svg xmlns:xlink="http://www.w3.org/1999/xlink" xmlns="http://www.w3.org/2000/svg" width="92.605" height="82.896" viewBox="0 0 92.605 82.896">
  <g id="_9254_-_Teamwork" data-name="9254 - Teamwork" transform="translate(-255.986 -336.513)">
    <g id="Group_276" data-name="Group 276" transform="translate(285.896 336.513)">
      <g id="Group_273" data-name="Group 273" transform="translate(7.109)">
        <path id="Path_1739" d="M879.3,347.71a1.469,1.469,0,0,1-.3-.031h0a1.508,1.508,0,0,1-.9-.577,3.869,3.869,0,0,1-.63-1.966l0-.018a8.345,8.345,0,0,1,.1-3.292,7.331,7.331,0,0,1,1.639-2.342,13.01,13.01,0,0,1,8.952-2.947,10.84,10.84,0,0,1,1.913.284,3.355,3.355,0,0,1,1.959,1.251,4.188,4.188,0,0,1,.445.837,2.5,2.5,0,0,0,.133.283,3.326,3.326,0,0,0,.423.332,5.7,5.7,0,0,1,.805.658,5.291,5.291,0,0,1,1.492,2.931,4.432,4.432,0,0,1-.757,2.722c-.054.089-.267.419-.466.709-.132.192-.24.341-.331.457a2.715,2.715,0,0,1-.217.249,1.489,1.489,0,0,1-1.685.326c-.28-.129-.582-.288-.866-.44a7.515,7.515,0,0,1-1.347-.908,10.03,10.03,0,0,1-1.033-1.074c-.132-.152-.26-.3-.387-.437a3.573,3.573,0,0,1-2.5.714,6.248,6.248,0,0,1-1.086-.243c-.1-.03-.2-.058-.289-.082a4.675,4.675,0,0,0-3.053.138c-.236.126-.412.52-.537,1.205l0,.009a1.531,1.531,0,0,1-.662,1.007A1.489,1.489,0,0,1,879.3,347.71Zm1.152-2.29Zm12.632-.472h0Zm-3.254-2.721a10.375,10.375,0,0,1,.988,1.035,7.6,7.6,0,0,0,.732.774,4.123,4.123,0,0,0,.508.367l.044-.07a1.985,1.985,0,0,0,.35-.928,2.468,2.468,0,0,0-.68-1.2,3.47,3.47,0,0,0-.418-.327,5.492,5.492,0,0,1-.862-.717,3.608,3.608,0,0,1-.675-1.117,2.491,2.491,0,0,0-.134-.286.831.831,0,0,0-.318-.134,8.038,8.038,0,0,0-1.4-.2,9.427,9.427,0,0,0-2.554.2,9.326,9.326,0,0,0-4.186,1.938,4.726,4.726,0,0,0-.713.876,7.9,7.9,0,0,1,4.6-.132c.128.034.247.069.363.1a3.977,3.977,0,0,0,.6.145.927.927,0,0,0,.72-.455,1.518,1.518,0,0,1,1.073-.716A2.4,2.4,0,0,1,889.834,342.226Zm-.558,1.361-.009.014,0,0Zm-1.245-.737h0Zm1.658-3.087Z" transform="translate(-876.923 -336.513)" fill="#FFFFFF"></path>
        <path id="Path_1740" d="M879.371,487.265a7.21,7.21,0,0,1-1.554-.169,7.658,7.658,0,0,1-3.1-1.534,7.871,7.871,0,0,1-2.38-3.391,7.972,7.972,0,0,1-.269-.943,4.254,4.254,0,0,1-1.949-2.72,3.972,3.972,0,0,1,1.349-3.933,1.447,1.447,0,1,1,1.9,2.18,1.115,1.115,0,0,0-.426,1.128,1.3,1.3,0,0,0,.814.951,1.447,1.447,0,0,1,1.031,1.2,6.455,6.455,0,0,0,.271,1.161,5.007,5.007,0,0,0,1.49,2.13,4.737,4.737,0,0,0,1.892.948,4.226,4.226,0,0,0,1.824,0,4.073,4.073,0,0,0,1.416-.652,5.08,5.08,0,0,0,.962-.888,6.536,6.536,0,0,0,1.3-2.852,1.447,1.447,0,0,1,1.138-1.118,1.583,1.583,0,0,0,.368-1.214c-.045-.423-.22-.479-.3-.506a1.447,1.447,0,1,1,.886-2.755,3.478,3.478,0,0,1,2.308,3.749,4.618,4.618,0,0,1-.706,2.153,3.375,3.375,0,0,1-1.045,1.043,8.92,8.92,0,0,1-1.73,3.368,7.908,7.908,0,0,1-1.538,1.408,6.968,6.968,0,0,1-2.387,1.081A6.882,6.882,0,0,1,879.371,487.265Z" transform="translate(-870.02 -465.916)" fill="#FFFFFF"></path>
      </g>
      <g id="Group_274" data-name="Group 274" transform="translate(11.296 17.45)">
        <path id="Path_1741" d="M940.921,632.189a1.448,1.448,0,0,1-1.3-2.09,4.066,4.066,0,0,0,.44-1.618,1.213,1.213,0,0,0-.072-.472c-.022-.079-.045-.16-.068-.25a1.447,1.447,0,1,1,2.8-.717c.016.064.033.122.049.177a4.006,4.006,0,0,1,.181,1.338,7.034,7.034,0,0,1-.74,2.827A1.447,1.447,0,0,1,940.921,632.189Z" transform="translate(-939.474 -625.953)" fill="#FFFFFF"></path>
        <path id="Path_1742" d="M1050.35,634.365a1.447,1.447,0,0,1-1.263-.739,6.877,6.877,0,0,1-.913-3.112,4.038,4.038,0,0,1,.182-1.339l.022-.079a1.447,1.447,0,0,1,2.789.774l-.026.092a1.239,1.239,0,0,0-.073.478,3.986,3.986,0,0,0,.544,1.771,1.447,1.447,0,0,1-1.261,2.155Z" transform="translate(-1041.618 -627.909)" fill="#FFFFFF"></path>
      </g>
      <path id="Path_1743" d="M783.442,679.29H753.553a1.447,1.447,0,0,1-1.447-1.443c-.006-2.165.1-7.581,1.189-11.1a9.672,9.672,0,0,1,1.174-2.54,10.016,10.016,0,0,1,3.735-3.283,10.186,10.186,0,0,1,5.023-1.086,1.447,1.447,0,0,1,.93.391l4.229,3.97,4.48-3.995a1.447,1.447,0,0,1,.9-.366,10.183,10.183,0,0,1,5.023,1.086,10.016,10.016,0,0,1,3.735,3.283,9.677,9.677,0,0,1,1.174,2.54c1.1,3.53,1.2,8.941,1.189,11.1A1.447,1.447,0,0,1,783.442,679.29ZM768.46,676.4h13.522a36.813,36.813,0,0,0-1.046-8.793,6.782,6.782,0,0,0-.824-1.8,7.028,7.028,0,0,0-2.632-2.3,7.245,7.245,0,0,0-3.094-.778l-5.062,4.514a1.447,1.447,0,0,1-1.953-.025l-4.781-4.488a7.246,7.246,0,0,0-3.074.778,7.028,7.028,0,0,0-2.633,2.3,6.782,6.782,0,0,0-.824,1.8,36.924,36.924,0,0,0-1.045,8.794H768.46Z" transform="translate(-752.106 -640.334)" fill="#FFFFFF"></path>
      <path id="Path_1744" d="M849.517,827.974a1.447,1.447,0,0,1-1.447-1.447V819.5a1.447,1.447,0,0,1,2.894,0v7.03A1.447,1.447,0,0,1,849.517,827.974Z" transform="translate(-842.284 -789.019)" fill="#FFFFFF"></path>
      <path id="Path_1745" d="M1161.527,827.974a1.447,1.447,0,0,1-1.447-1.447V819.5a1.447,1.447,0,0,1,2.894,0v7.03A1.447,1.447,0,0,1,1161.527,827.974Z" transform="translate(-1135.484 -789.019)" fill="#FFFFFF"></path>
      <g id="Group_275" data-name="Group 275" transform="translate(7.233 19.726)">
        <path id="Path_1746" d="M879.724,682.933a1.447,1.447,0,0,1-1.353-.934l-6.2-16.335a1.447,1.447,0,0,1,2.705-1.027l6.2,16.335a1.448,1.448,0,0,1-1.352,1.961Z" transform="translate(-872.074 -663.703)" fill="#FFFFFF"></path>
        <path id="Path_1747" d="M1026.484,682.935a1.448,1.448,0,0,1-1.352-1.961l6.2-16.335a1.447,1.447,0,0,1,2.705,1.027l-6.2,16.335A1.448,1.448,0,0,1,1026.484,682.935Z" transform="translate(-1015.815 -663.705)" fill="#FFFFFF"></path>
      </g>
    </g>
    <g id="Group_285" data-name="Group 285" transform="translate(255.986 380.453)">
      <g id="Group_280" data-name="Group 280" transform="translate(59.82 0)">
        <g id="Group_277" data-name="Group 277" transform="translate(7.109)">
          <path id="Path_1748" d="M1375.422,1076.542a1.473,1.473,0,0,1-.3-.031h-.006a1.509,1.509,0,0,1-.888-.574,3.877,3.877,0,0,1-.63-1.966l0-.018a8.342,8.342,0,0,1,.1-3.292,7.331,7.331,0,0,1,1.639-2.342,13.008,13.008,0,0,1,8.952-2.947,10.85,10.85,0,0,1,1.913.284,3.357,3.357,0,0,1,1.959,1.251,4.184,4.184,0,0,1,.445.837,2.5,2.5,0,0,0,.133.283,3.33,3.33,0,0,0,.423.332,5.688,5.688,0,0,1,.805.658,5.291,5.291,0,0,1,1.493,2.931,4.432,4.432,0,0,1-.757,2.722c-.054.089-.267.419-.466.709-.132.192-.24.341-.331.457a2.734,2.734,0,0,1-.217.249,1.49,1.49,0,0,1-1.685.326c-.28-.129-.582-.288-.866-.44a7.517,7.517,0,0,1-1.347-.908,10.048,10.048,0,0,1-1.033-1.074c-.132-.152-.26-.3-.387-.437a3.573,3.573,0,0,1-2.5.714,6.252,6.252,0,0,1-1.086-.243c-.1-.03-.2-.058-.289-.082a4.675,4.675,0,0,0-3.053.138c-.236.126-.412.52-.537,1.205l0,.01a1.531,1.531,0,0,1-.662,1.006A1.493,1.493,0,0,1,1375.422,1076.542Zm1.152-2.29Zm9.375-3.2a10.333,10.333,0,0,1,.989,1.037,7.6,7.6,0,0,0,.732.774,4.1,4.1,0,0,0,.508.367l.044-.07a1.983,1.983,0,0,0,.35-.928,2.469,2.469,0,0,0-.68-1.2,3.48,3.48,0,0,0-.418-.327,5.5,5.5,0,0,1-.862-.717,3.612,3.612,0,0,1-.675-1.117,2.461,2.461,0,0,0-.134-.286.831.831,0,0,0-.319-.134,8.048,8.048,0,0,0-1.4-.2,9.439,9.439,0,0,0-2.554.2,9.326,9.326,0,0,0-4.186,1.938,4.727,4.727,0,0,0-.714.876,7.9,7.9,0,0,1,4.6-.132c.128.034.247.069.363.1a3.972,3.972,0,0,0,.6.145.924.924,0,0,0,.72-.454,1.519,1.519,0,0,1,1.071-.717A2.4,2.4,0,0,1,1385.95,1071.057Zm-.556,1.363-.009.014,0,.006Zm-1.246-.737h0Zm1.658-3.087Zm2.928-.569Z" transform="translate(-1373.041 -1065.345)" fill="#FFFFFF"></path>
          <path id="Path_1749" d="M1375.491,1216.1a7.2,7.2,0,0,1-1.554-.169,7.656,7.656,0,0,1-3.1-1.534,7.867,7.867,0,0,1-2.38-3.391,7.959,7.959,0,0,1-.269-.943,4.254,4.254,0,0,1-1.949-2.72,3.972,3.972,0,0,1,1.349-3.933,1.447,1.447,0,0,1,1.9,2.18,1.115,1.115,0,0,0-.426,1.128,1.3,1.3,0,0,0,.814.951,1.447,1.447,0,0,1,1.031,1.2,6.444,6.444,0,0,0,.271,1.161,5.006,5.006,0,0,0,1.49,2.13,4.736,4.736,0,0,0,1.892.948,4.225,4.225,0,0,0,1.824,0,4.073,4.073,0,0,0,1.416-.653,5.069,5.069,0,0,0,.962-.888,6.534,6.534,0,0,0,1.3-2.852,1.447,1.447,0,0,1,1.138-1.118,1.583,1.583,0,0,0,.368-1.214c-.045-.423-.22-.479-.3-.506a1.447,1.447,0,1,1,.886-2.755,3.478,3.478,0,0,1,2.309,3.749,4.619,4.619,0,0,1-.707,2.153,3.376,3.376,0,0,1-1.045,1.043,8.916,8.916,0,0,1-1.73,3.368,7.907,7.907,0,0,1-1.538,1.408,6.969,6.969,0,0,1-2.387,1.081A6.866,6.866,0,0,1,1375.491,1216.1Z" transform="translate(-1366.14 -1194.748)" fill="#FFFFFF"></path>
        </g>
        <g id="Group_278" data-name="Group 278" transform="translate(11.296 17.45)">
          <path id="Path_1750" d="M1437.029,1361.025a1.448,1.448,0,0,1-1.3-2.09,4.069,4.069,0,0,0,.44-1.618,1.221,1.221,0,0,0-.072-.472c-.022-.079-.045-.16-.068-.25a1.447,1.447,0,1,1,2.8-.717c.016.063.033.121.049.177a4.007,4.007,0,0,1,.181,1.338,7.031,7.031,0,0,1-.74,2.827A1.447,1.447,0,0,1,1437.029,1361.025Z" transform="translate(-1435.583 -1354.789)" fill="#FFFFFF"></path>
          <path id="Path_1751" d="M1546.47,1363.2a1.446,1.446,0,0,1-1.263-.739,6.876,6.876,0,0,1-.913-3.113,4.044,4.044,0,0,1,.181-1.339l.022-.079a1.447,1.447,0,1,1,2.788.774l-.026.092a1.243,1.243,0,0,0-.073.478,3.986,3.986,0,0,0,.544,1.771,1.447,1.447,0,0,1-1.261,2.155Z" transform="translate(-1537.738 -1356.744)" fill="#FFFFFF"></path>
        </g>
        <path id="Path_1752" d="M1279.552,1408.119h-29.889a1.447,1.447,0,0,1-1.447-1.443c-.006-2.165.1-7.582,1.189-11.1a9.663,9.663,0,0,1,1.174-2.54,10.017,10.017,0,0,1,3.735-3.283,10.183,10.183,0,0,1,5.023-1.086,1.447,1.447,0,0,1,.93.391l4.229,3.97,4.48-3.995a1.446,1.446,0,0,1,.9-.366,10.183,10.183,0,0,1,5.023,1.086,10.019,10.019,0,0,1,3.735,3.283,9.679,9.679,0,0,1,1.174,2.541c1.1,3.529,1.2,8.94,1.189,11.1A1.447,1.447,0,0,1,1279.552,1408.119Zm-14.982-2.894h13.522a36.819,36.819,0,0,0-1.046-8.794,6.78,6.78,0,0,0-.824-1.8,7.028,7.028,0,0,0-2.633-2.3,7.252,7.252,0,0,0-3.094-.778l-5.062,4.514a1.446,1.446,0,0,1-1.953-.025l-4.781-4.488a7.246,7.246,0,0,0-3.074.778,7.029,7.029,0,0,0-2.633,2.3,6.778,6.778,0,0,0-.824,1.8,36.917,36.917,0,0,0-1.045,8.793h13.447Z" transform="translate(-1248.216 -1369.163)" fill="#FFFFFF"></path>
        <path id="Path_1753" d="M1345.637,1556.813a1.447,1.447,0,0,1-1.447-1.447v-7.03a1.447,1.447,0,1,1,2.894,0v7.03A1.447,1.447,0,0,1,1345.637,1556.813Z" transform="translate(-1338.404 -1517.858)" fill="#FFFFFF"></path>
        <path id="Path_1754" d="M1657.637,1556.813a1.447,1.447,0,0,1-1.447-1.447v-7.03a1.447,1.447,0,0,1,2.894,0v7.03A1.447,1.447,0,0,1,1657.637,1556.813Z" transform="translate(-1631.594 -1517.858)" fill="#FFFFFF"></path>
        <g id="Group_279" data-name="Group 279" transform="translate(7.232 19.726)">
          <path id="Path_1755" d="M1375.829,1411.767a1.447,1.447,0,0,1-1.353-.934l-6.2-16.335a1.447,1.447,0,1,1,2.705-1.027l6.2,16.335a1.448,1.448,0,0,1-1.352,1.961Z" transform="translate(-1368.178 -1392.537)" fill="#FFFFFF"></path>
          <path id="Path_1756" d="M1522.594,1411.765a1.448,1.448,0,0,1-1.352-1.961l6.2-16.335a1.447,1.447,0,1,1,2.705,1.027l-6.2,16.335A1.448,1.448,0,0,1,1522.594,1411.765Z" transform="translate(-1511.925 -1392.535)" fill="#FFFFFF"></path>
        </g>
      </g>
      <g id="Group_284" data-name="Group 284">
        <g id="Group_281" data-name="Group 281" transform="translate(7.109)">
          <path id="Path_1757" d="M383.2,1076.541a1.472,1.472,0,0,1-.3-.031h-.006a1.51,1.51,0,0,1-.887-.573,3.87,3.87,0,0,1-.631-1.967l0-.018a8.343,8.343,0,0,1,.1-3.292,7.333,7.333,0,0,1,1.639-2.342,13.008,13.008,0,0,1,8.952-2.947,10.835,10.835,0,0,1,1.913.284,3.355,3.355,0,0,1,1.959,1.251,4.188,4.188,0,0,1,.445.837,2.5,2.5,0,0,0,.133.283,3.329,3.329,0,0,0,.423.332,5.69,5.69,0,0,1,.805.658,5.29,5.29,0,0,1,1.493,2.931,4.432,4.432,0,0,1-.757,2.722c-.054.09-.267.42-.466.709-.132.192-.24.341-.331.457a2.733,2.733,0,0,1-.217.249,1.49,1.49,0,0,1-1.685.326c-.28-.129-.582-.288-.866-.44a7.529,7.529,0,0,1-1.347-.908,10.016,10.016,0,0,1-1.033-1.074c-.132-.152-.26-.3-.387-.437a3.573,3.573,0,0,1-2.5.714,6.249,6.249,0,0,1-1.086-.243c-.1-.03-.2-.058-.289-.082a4.675,4.675,0,0,0-3.053.138c-.236.126-.412.52-.537,1.205l0,.009a1.531,1.531,0,0,1-.662,1.007A1.492,1.492,0,0,1,383.2,1076.541Zm1.152-2.29Zm9.376-3.2a10.359,10.359,0,0,1,.99,1.037,7.6,7.6,0,0,0,.732.774,4.13,4.13,0,0,0,.508.367l.044-.071a1.984,1.984,0,0,0,.35-.928,2.468,2.468,0,0,0-.68-1.2,3.461,3.461,0,0,0-.418-.327,5.5,5.5,0,0,1-.862-.717,3.608,3.608,0,0,1-.675-1.116,2.472,2.472,0,0,0-.134-.286.834.834,0,0,0-.319-.134,8.034,8.034,0,0,0-1.4-.2,9.434,9.434,0,0,0-2.554.2,9.328,9.328,0,0,0-4.186,1.938,4.733,4.733,0,0,0-.713.876,7.9,7.9,0,0,1,4.6-.132c.128.034.247.069.363.1a3.974,3.974,0,0,0,.6.145.926.926,0,0,0,.721-.456,1.519,1.519,0,0,1,1.07-.715A2.407,2.407,0,0,1,393.723,1071.056Zm-.56,1.369-.005.009,0,0Zm0,0h0Zm0,0h0Zm0,0v0Zm-1.245-.737h0Zm1.659-3.087Zm2.928-.568Z" transform="translate(-380.814 -1065.344)" fill="#FFFFFF"></path>
          <path id="Path_1758" d="M383.259,1216.1a7.2,7.2,0,0,1-1.554-.169,7.659,7.659,0,0,1-3.1-1.534,7.871,7.871,0,0,1-2.38-3.391,7.966,7.966,0,0,1-.269-.943,4.254,4.254,0,0,1-1.949-2.72,3.972,3.972,0,0,1,1.349-3.933,1.447,1.447,0,1,1,1.9,2.18,1.114,1.114,0,0,0-.426,1.128,1.3,1.3,0,0,0,.814.951,1.447,1.447,0,0,1,1.031,1.2,6.452,6.452,0,0,0,.271,1.161,5.009,5.009,0,0,0,1.49,2.13,4.738,4.738,0,0,0,1.892.948,4.227,4.227,0,0,0,1.824,0,4.079,4.079,0,0,0,1.416-.652,5.085,5.085,0,0,0,.962-.888,6.533,6.533,0,0,0,1.3-2.853,1.447,1.447,0,0,1,1.138-1.118,1.583,1.583,0,0,0,.368-1.214c-.045-.423-.22-.479-.3-.506a1.447,1.447,0,0,1,.886-2.755,3.479,3.479,0,0,1,2.309,3.749,4.619,4.619,0,0,1-.706,2.153,3.375,3.375,0,0,1-1.045,1.043,8.917,8.917,0,0,1-1.73,3.368,7.917,7.917,0,0,1-1.538,1.408,6.971,6.971,0,0,1-2.387,1.081A6.87,6.87,0,0,1,383.259,1216.1Z" transform="translate(-373.908 -1194.748)" fill="#FFFFFF"></path>
        </g>
        <g id="Group_282" data-name="Group 282" transform="translate(11.296 17.45)">
          <path id="Path_1759" d="M444.8,1361.027a1.447,1.447,0,0,1-1.3-2.09,4.066,4.066,0,0,0,.44-1.618,1.216,1.216,0,0,0-.072-.472c-.022-.079-.045-.16-.068-.25a1.447,1.447,0,1,1,2.8-.716c.016.064.033.121.049.177a4.005,4.005,0,0,1,.181,1.338,7.033,7.033,0,0,1-.74,2.827A1.446,1.446,0,0,1,444.8,1361.027Z" transform="translate(-443.354 -1354.792)" fill="#FFFFFF"></path>
          <path id="Path_1760" d="M554.241,1363.2a1.447,1.447,0,0,1-1.263-.739,6.877,6.877,0,0,1-.913-3.113,4.042,4.042,0,0,1,.181-1.339l.022-.079a1.447,1.447,0,1,1,2.788.774l-.026.092a1.241,1.241,0,0,0-.073.478,3.989,3.989,0,0,0,.544,1.771,1.447,1.447,0,0,1-1.261,2.155Z" transform="translate(-545.509 -1356.744)" fill="#FFFFFF"></path>
        </g>
        <path id="Path_1761" d="M287.322,1408.118H257.433a1.447,1.447,0,0,1-1.447-1.443c-.006-2.165.1-7.581,1.189-11.1a9.676,9.676,0,0,1,1.174-2.54,10.016,10.016,0,0,1,3.735-3.283,10.184,10.184,0,0,1,5.023-1.086,1.447,1.447,0,0,1,.93.391l4.229,3.969,4.48-3.994a1.447,1.447,0,0,1,.9-.366,10.187,10.187,0,0,1,5.023,1.086,10.018,10.018,0,0,1,3.735,3.283,9.68,9.68,0,0,1,1.174,2.54c1.1,3.53,1.2,8.941,1.189,11.1A1.447,1.447,0,0,1,287.322,1408.118Zm-14.982-2.894h13.522a36.805,36.805,0,0,0-1.046-8.793,6.783,6.783,0,0,0-.824-1.8,7.028,7.028,0,0,0-2.633-2.3,7.253,7.253,0,0,0-3.094-.778l-5.062,4.514a1.447,1.447,0,0,1-1.953-.025l-4.781-4.488a7.246,7.246,0,0,0-3.074.778,7.026,7.026,0,0,0-2.633,2.3,6.777,6.777,0,0,0-.824,1.8,36.919,36.919,0,0,0-1.045,8.793Z" transform="translate(-255.986 -1369.163)" fill="#FFFFFF"></path>
        <path id="Path_1762" d="M353.4,1556.813a1.447,1.447,0,0,1-1.447-1.447v-7.03a1.447,1.447,0,0,1,2.894,0v7.03A1.447,1.447,0,0,1,353.4,1556.813Z" transform="translate(-346.164 -1517.858)" fill="#FFFFFF"></path>
        <path id="Path_1763" d="M665.407,1556.813a1.447,1.447,0,0,1-1.447-1.447v-7.03a1.447,1.447,0,0,1,2.894,0v7.03A1.447,1.447,0,0,1,665.407,1556.813Z" transform="translate(-639.364 -1517.858)" fill="#FFFFFF"></path>
        <g id="Group_283" data-name="Group 283" transform="translate(7.233 19.726)">
          <path id="Path_1764" d="M383.6,1411.767a1.447,1.447,0,0,1-1.353-.934l-6.2-16.335a1.447,1.447,0,0,1,2.705-1.027l6.2,16.335a1.448,1.448,0,0,1-1.352,1.961Z" transform="translate(-375.952 -1392.537)" fill="#FFFFFF"></path>
          <path id="Path_1765" d="M530.36,1411.766a1.448,1.448,0,0,1-1.352-1.961l6.2-16.335a1.447,1.447,0,0,1,2.705,1.027l-6.2,16.335A1.448,1.448,0,0,1,530.36,1411.766Z" transform="translate(-519.692 -1392.537)" fill="#FFFFFF"></path>
        </g>
      </g>
    </g>
    <g id="Group_287" data-name="Group 287" transform="translate(264.886 359.41)">
      <g id="Group_286" data-name="Group 286" transform="translate(0 2.738)">
        <path id="Path_1766" d="M405.067,775.04a1.447,1.447,0,0,1-1.447-1.447V763.167a1.447,1.447,0,1,1,2.894,0v10.426A1.447,1.447,0,0,1,405.067,775.04Z" transform="translate(-403.62 -761.72)" fill="#FFFFFF"></path>
        <path id="Path_1767" d="M415.493,764.614H405.067a1.447,1.447,0,0,1,0-2.894h10.426a1.447,1.447,0,1,1,0,2.894Z" transform="translate(-403.62 -761.72)" fill="#FFFFFF"></path>
      </g>
      <path id="Path_1768" d="M560.2,724.678a1.447,1.447,0,0,1-1.023-2.47l1.714-1.714-1.714-1.715a1.447,1.447,0,0,1,2.046-2.046l2.737,2.738a1.447,1.447,0,0,1,0,2.046l-2.737,2.737A1.442,1.442,0,0,1,560.2,724.678Z" transform="translate(-549.398 -716.309)" fill="#FFFFFF"></path>
    </g>
    <g id="Group_289" data-name="Group 289" transform="translate(324.169 359.947)">
      <g id="Group_288" data-name="Group 288" transform="translate(0 0)">
        <path id="Path_1769" d="M1398.814,728.114h-10.427a1.447,1.447,0,1,1,0-2.894h10.427a1.447,1.447,0,1,1,0,2.894Z" transform="translate(-1386.94 -725.22)" fill="#FFFFFF"></path>
        <path id="Path_1770" d="M1561.337,738.541a1.447,1.447,0,0,1-1.447-1.447V726.667a1.447,1.447,0,0,1,2.894,0v10.427A1.447,1.447,0,0,1,1561.337,738.541Z" transform="translate(-1549.463 -725.22)" fill="#FFFFFF"></path>
      </g>
      <path id="Path_1771" d="M1518.665,885.981a1.442,1.442,0,0,1-1.023-.424l-2.738-2.737a1.447,1.447,0,1,1,2.046-2.046l1.714,1.714,1.714-1.714a1.447,1.447,0,0,1,2.046,2.046l-2.737,2.737A1.443,1.443,0,0,1,1518.665,885.981Z" transform="translate(-1506.791 -870.997)" fill="#FFFFFF"></path>
    </g>
    <g id="Group_290" data-name="Group 290" transform="translate(293.835 403.68)">
      <path id="Path_1772" d="M899.249,1498.894H885.237a1.447,1.447,0,0,1,0-2.894h14.012a1.447,1.447,0,0,1,0,2.894Z" transform="translate(-883.79 -1493.263)" fill="#FFFFFF"></path>
      <path id="Path_1773" d="M887.973,1458.968a1.443,1.443,0,0,1-1.023-.424l-2.737-2.737a1.447,1.447,0,0,1,0-2.046l2.737-2.737A1.447,1.447,0,0,1,889,1453.07l-1.714,1.714L889,1456.5a1.447,1.447,0,0,1-1.023,2.47Z" transform="translate(-883.789 -1450.6)" fill="#FFFFFF"></path>
    </g>
  </g>
</svg>